<?xml version="1.0" encoding="utf-8" ?>
<svg baseProfile="tiny" height="683" version="1.2" viewBox="0,0,1024,683" width="1024" xmlns="http://www.w3.org/2000/svg" xmlns:ev="http://www.w3.org/2001/xml-events" xmlns:xlink="http://www.w3.org/1999/xlink"><defs /><path d="M 384 585 L 383 586 L 382 586 L 381 587 L 380 588 L 380 589 L 380 590 L 381 590 L 382 591 L 383 592 L 384 592 L 385 593 L 386 593 L 387 594 L 388 594 L 389 595 L 390 595 L 391 596 L 392 596 L 393 597 L 394 597 L 395 598 L 396 597 L 396 596 L 397 595 L 397 594 L 397 593 L 396 592 L 396 591 L 395 590 L 395 589 L 394 588 L 393 587 L 392 586 L 391 586 L 390 585 L 389 585 L 388 585 L 387 585 L 386 585 L 385 585 Z M 521 566 L 520 567 L 519 567 L 518 567 L 517 568 L 516 568 L 515 569 L 514 569 L 513 570 L 513 571 L 512 572 L 511 573 L 511 574 L 511 575 L 511 576 L 510 577 L 510 578 L 510 579 L 510 580 L 510 581 L 510 582 L 511 583 L 511 584 L 512 585 L 512 586 L 513 587 L 514 588 L 515 588 L 516 589 L 517 589 L 518 590 L 519 590 L 520 590 L 521 590 L 522 590 L 523 590 L 524 590 L 525 589 L 526 589 L 527 589 L 528 588 L 529 588 L 530 587 L 531 586 L 532 585 L 533 584 L 533 583 L 534 582 L 534 581 L 535 580 L 535 579 L 536 578 L 536 577 L 536 576 L 536 575 L 536 574 L 536 573 L 535 572 L 535 571 L 534 570 L 533 569 L 532 568 L 531 568 L 530 567 L 529 567 L 528 566 L 527 566 L 526 566 L 525 566 L 524 566 L 523 566 L 522 566 Z M 423 519 L 422 520 L 421 520 L 420 520 L 419 520 L 418 521 L 417 521 L 416 522 L 415 523 L 414 524 L 413 525 L 413 526 L 412 527 L 412 528 L 411 529 L 411 530 L 411 531 L 410 532 L 410 533 L 410 534 L 410 535 L 410 536 L 411 537 L 411 538 L 411 539 L 412 540 L 412 541 L 413 542 L 414 543 L 415 544 L 416 544 L 417 544 L 418 544 L 419 545 L 420 545 L 421 544 L 422 544 L 423 544 L 424 543 L 425 543 L 426 542 L 427 541 L 428 541 L 429 540 L 430 539 L 430 538 L 431 537 L 432 536 L 432 535 L 433 534 L 433 533 L 434 532 L 434 531 L 434 530 L 434 529 L 434 528 L 434 527 L 433 526 L 433 525 L 433 524 L 432 523 L 431 522 L 430 521 L 429 521 L 428 520 L 427 520 L 426 519 L 425 519 L 424 519 Z M 527 515 L 526 516 L 525 516 L 524 516 L 523 517 L 522 517 L 521 518 L 520 519 L 520 520 L 519 521 L 519 522 L 518 523 L 518 524 L 518 525 L 518 526 L 518 527 L 518 528 L 518 529 L 518 530 L 518 531 L 518 532 L 518 533 L 519 534 L 519 535 L 520 536 L 520 537 L 521 538 L 522 539 L 523 540 L 524 540 L 525 541 L 526 541 L 527 541 L 528 542 L 529 542 L 530 542 L 531 542 L 532 541 L 533 541 L 534 541 L 535 540 L 536 540 L 537 539 L 538 538 L 539 537 L 540 536 L 540 535 L 541 534 L 541 533 L 541 532 L 542 531 L 542 530 L 542 529 L 542 528 L 542 527 L 542 526 L 542 525 L 542 524 L 541 523 L 541 522 L 540 521 L 540 520 L 539 519 L 538 518 L 537 517 L 536 517 L 535 516 L 534 516 L 533 516 L 532 515 L 531 515 L 530 515 L 529 515 L 528 515 Z M 438 62 L 437 63 L 436 63 L 435 63 L 434 63 L 433 63 L 432 64 L 431 64 L 430 64 L 429 64 L 428 65 L 427 65 L 426 65 L 425 66 L 424 66 L 423 66 L 422 67 L 421 67 L 420 67 L 419 68 L 418 68 L 417 69 L 416 69 L 415 70 L 414 71 L 413 71 L 412 72 L 411 72 L 410 73 L 409 74 L 408 74 L 407 75 L 406 76 L 405 76 L 404 77 L 403 78 L 402 79 L 401 79 L 400 80 L 399 81 L 398 82 L 397 82 L 396 83 L 395 84 L 394 85 L 393 86 L 392 86 L 391 87 L 390 88 L 389 89 L 388 90 L 387 90 L 386 91 L 385 92 L 384 93 L 383 94 L 382 95 L 381 96 L 380 96 L 379 97 L 378 98 L 377 99 L 376 100 L 375 100 L 374 101 L 373 102 L 372 103 L 371 103 L 370 104 L 369 105 L 368 105 L 367 106 L 366 107 L 365 107 L 364 108 L 363 108 L 362 109 L 361 110 L 360 110 L 359 111 L 358 112 L 357 113 L 356 113 L 355 114 L 354 114 L 353 115 L 352 116 L 351 116 L 350 117 L 349 118 L 348 119 L 347 119 L 346 120 L 345 121 L 344 122 L 343 122 L 342 123 L 341 124 L 340 125 L 339 126 L 338 127 L 337 128 L 336 129 L 335 130 L 335 131 L 334 132 L 333 133 L 333 134 L 332 135 L 332 136 L 332 137 L 331 138 L 331 139 L 331 140 L 331 141 L 331 142 L 331 143 L 331 144 L 331 145 L 331 146 L 331 147 L 331 148 L 331 149 L 331 150 L 331 151 L 331 152 L 331 153 L 331 154 L 331 155 L 332 156 L 332 157 L 332 158 L 332 159 L 333 160 L 333 161 L 333 162 L 334 163 L 334 164 L 335 165 L 335 166 L 335 167 L 336 168 L 336 169 L 337 170 L 337 171 L 338 172 L 339 173 L 339 174 L 340 175 L 340 176 L 341 177 L 341 178 L 342 179 L 343 180 L 343 181 L 344 182 L 344 183 L 345 184 L 346 185 L 347 186 L 347 187 L 348 188 L 349 189 L 349 190 L 350 191 L 351 192 L 352 193 L 352 194 L 353 195 L 354 196 L 354 197 L 355 198 L 356 199 L 357 200 L 358 201 L 358 202 L 359 203 L 360 204 L 361 205 L 362 206 L 363 207 L 363 208 L 364 209 L 365 210 L 366 211 L 367 212 L 368 213 L 369 214 L 370 215 L 370 216 L 371 217 L 372 218 L 373 219 L 374 220 L 375 221 L 376 222 L 377 222 L 378 223 L 379 224 L 380 225 L 381 226 L 382 227 L 383 228 L 384 229 L 385 230 L 386 231 L 387 232 L 388 233 L 388 234 L 387 235 L 387 236 L 387 237 L 386 238 L 386 239 L 386 240 L 385 241 L 385 242 L 385 243 L 385 244 L 384 245 L 384 246 L 384 247 L 384 248 L 383 249 L 383 250 L 383 251 L 383 252 L 383 253 L 383 254 L 383 255 L 383 256 L 383 257 L 383 258 L 383 259 L 383 260 L 383 261 L 383 262 L 383 263 L 383 264 L 383 265 L 384 266 L 384 267 L 384 268 L 384 269 L 384 270 L 384 271 L 385 272 L 385 273 L 385 274 L 386 275 L 386 276 L 387 277 L 387 278 L 387 279 L 388 280 L 388 281 L 389 282 L 389 283 L 390 284 L 391 285 L 391 286 L 392 287 L 393 288 L 394 289 L 393 290 L 392 291 L 391 292 L 390 293 L 389 294 L 388 295 L 387 295 L 386 296 L 385 296 L 384 297 L 383 298 L 382 298 L 382 299 L 383 299 L 384 298 L 385 298 L 386 298 L 387 297 L 388 297 L 389 297 L 390 296 L 391 296 L 392 295 L 393 295 L 394 295 L 395 296 L 394 297 L 393 298 L 392 299 L 391 299 L 390 300 L 389 301 L 388 301 L 387 301 L 386 302 L 385 302 L 384 302 L 383 302 L 382 302 L 381 302 L 380 302 L 379 301 L 378 301 L 378 302 L 378 303 L 379 304 L 379 305 L 380 306 L 381 307 L 382 308 L 383 309 L 384 310 L 385 311 L 386 311 L 387 312 L 388 312 L 389 312 L 390 313 L 391 313 L 392 313 L 393 313 L 394 314 L 393 315 L 392 315 L 391 316 L 390 316 L 389 316 L 388 315 L 387 315 L 386 315 L 385 314 L 384 314 L 383 314 L 382 313 L 381 312 L 380 311 L 379 310 L 378 309 L 377 308 L 376 307 L 375 306 L 375 305 L 375 304 L 374 303 L 374 302 L 374 301 L 374 300 L 374 299 L 373 299 L 372 299 L 372 300 L 372 301 L 371 302 L 371 303 L 371 304 L 371 305 L 371 306 L 371 307 L 371 308 L 371 309 L 371 310 L 372 311 L 372 312 L 372 313 L 372 314 L 373 315 L 373 316 L 373 317 L 374 318 L 374 319 L 375 320 L 376 321 L 377 322 L 378 323 L 379 324 L 380 325 L 381 326 L 382 327 L 383 327 L 384 328 L 385 328 L 386 329 L 387 329 L 388 329 L 389 330 L 390 330 L 391 330 L 392 330 L 393 330 L 394 330 L 395 329 L 396 329 L 397 329 L 398 330 L 397 331 L 396 332 L 395 333 L 394 334 L 393 334 L 392 335 L 391 335 L 390 335 L 389 335 L 388 336 L 387 336 L 386 335 L 385 335 L 384 335 L 383 335 L 382 335 L 381 334 L 380 334 L 379 334 L 379 335 L 379 336 L 380 337 L 380 338 L 381 339 L 382 340 L 383 341 L 384 342 L 385 343 L 386 344 L 387 345 L 388 345 L 389 346 L 390 346 L 391 346 L 392 346 L 393 347 L 394 347 L 395 347 L 396 346 L 397 346 L 398 345 L 399 345 L 400 346 L 399 347 L 398 348 L 397 349 L 396 349 L 395 350 L 394 350 L 393 350 L 392 351 L 391 351 L 390 351 L 389 351 L 388 351 L 387 351 L 386 351 L 385 350 L 384 350 L 383 349 L 382 349 L 381 348 L 380 347 L 379 346 L 378 345 L 377 344 L 376 343 L 375 342 L 375 341 L 374 340 L 373 339 L 373 338 L 372 338 L 372 339 L 372 340 L 372 341 L 372 342 L 372 343 L 373 344 L 373 345 L 373 346 L 374 347 L 374 348 L 375 349 L 375 350 L 376 351 L 377 352 L 377 353 L 378 354 L 379 355 L 380 356 L 381 356 L 382 357 L 383 357 L 384 358 L 385 359 L 385 360 L 385 361 L 386 362 L 387 363 L 388 364 L 389 364 L 390 365 L 391 366 L 392 366 L 393 366 L 394 367 L 395 367 L 396 368 L 397 368 L 398 368 L 399 368 L 400 369 L 401 369 L 402 369 L 403 369 L 404 369 L 405 370 L 406 370 L 407 370 L 408 370 L 409 371 L 409 372 L 408 373 L 407 373 L 406 373 L 405 373 L 404 373 L 403 373 L 402 373 L 401 373 L 400 373 L 399 373 L 398 373 L 397 372 L 396 372 L 395 372 L 394 371 L 393 371 L 392 371 L 391 370 L 390 370 L 389 369 L 388 368 L 387 368 L 386 367 L 385 366 L 384 365 L 383 364 L 382 363 L 381 362 L 380 361 L 379 360 L 378 359 L 377 358 L 377 357 L 376 356 L 375 355 L 374 355 L 374 356 L 375 357 L 375 358 L 376 359 L 376 360 L 377 361 L 377 362 L 378 363 L 379 364 L 379 365 L 380 366 L 381 367 L 382 368 L 383 369 L 384 370 L 385 371 L 386 372 L 387 372 L 388 373 L 389 373 L 390 374 L 391 374 L 392 375 L 393 375 L 394 375 L 395 376 L 396 376 L 397 376 L 398 376 L 399 377 L 400 377 L 401 377 L 402 377 L 403 377 L 404 377 L 405 376 L 406 376 L 407 376 L 408 376 L 409 376 L 410 376 L 411 376 L 412 377 L 413 378 L 413 379 L 414 380 L 415 381 L 415 382 L 416 383 L 417 384 L 418 385 L 419 386 L 420 387 L 420 388 L 421 389 L 422 390 L 423 391 L 424 392 L 425 393 L 426 393 L 427 394 L 428 395 L 429 395 L 430 396 L 431 396 L 432 397 L 433 397 L 434 398 L 435 398 L 436 399 L 437 399 L 438 400 L 439 401 L 440 402 L 441 403 L 441 404 L 442 405 L 443 406 L 444 407 L 445 408 L 445 409 L 446 410 L 447 411 L 448 412 L 448 413 L 449 414 L 450 415 L 451 416 L 452 417 L 453 418 L 454 419 L 455 420 L 456 421 L 456 422 L 457 423 L 458 424 L 459 424 L 460 425 L 461 426 L 462 427 L 462 428 L 462 429 L 463 430 L 463 431 L 463 432 L 463 433 L 464 434 L 464 435 L 464 436 L 464 437 L 465 438 L 465 439 L 465 440 L 465 441 L 466 442 L 466 443 L 466 444 L 465 445 L 464 446 L 463 447 L 462 448 L 461 449 L 460 449 L 459 450 L 458 450 L 457 451 L 456 452 L 455 452 L 454 453 L 453 453 L 452 454 L 451 455 L 450 456 L 449 457 L 449 458 L 448 459 L 448 460 L 448 461 L 448 462 L 448 463 L 448 464 L 448 465 L 448 466 L 448 467 L 448 468 L 448 469 L 448 470 L 448 471 L 448 472 L 449 473 L 449 474 L 449 475 L 449 476 L 450 477 L 449 478 L 448 479 L 447 480 L 446 480 L 445 480 L 444 481 L 443 481 L 442 482 L 441 482 L 440 483 L 439 483 L 438 483 L 437 484 L 436 484 L 435 485 L 434 485 L 433 485 L 432 486 L 431 486 L 430 486 L 429 487 L 428 487 L 427 487 L 426 488 L 425 488 L 424 488 L 423 489 L 422 489 L 421 490 L 420 490 L 419 490 L 418 491 L 417 491 L 416 491 L 415 491 L 414 492 L 413 492 L 412 493 L 411 493 L 410 493 L 409 493 L 408 494 L 407 494 L 406 495 L 405 495 L 404 495 L 403 496 L 402 496 L 401 496 L 400 496 L 399 497 L 398 497 L 397 497 L 396 498 L 395 498 L 394 499 L 393 499 L 392 499 L 391 500 L 390 500 L 389 500 L 388 500 L 387 501 L 386 501 L 385 501 L 384 502 L 383 502 L 382 502 L 381 503 L 380 503 L 379 503 L 378 504 L 377 504 L 376 504 L 375 505 L 374 505 L 373 505 L 372 506 L 371 506 L 370 506 L 369 507 L 368 507 L 367 508 L 366 508 L 365 508 L 364 509 L 363 510 L 362 510 L 361 511 L 360 511 L 359 512 L 358 512 L 357 513 L 356 514 L 355 515 L 354 515 L 353 516 L 352 517 L 352 518 L 351 519 L 350 520 L 349 521 L 349 522 L 348 523 L 347 524 L 347 525 L 346 526 L 345 527 L 345 528 L 344 529 L 344 530 L 343 531 L 343 532 L 342 533 L 342 534 L 341 535 L 341 536 L 340 537 L 340 538 L 339 539 L 339 540 L 338 541 L 338 542 L 337 543 L 337 544 L 336 545 L 336 546 L 336 547 L 336 548 L 335 549 L 335 550 L 334 551 L 334 552 L 334 553 L 335 552 L 335 551 L 336 550 L 336 549 L 337 548 L 337 547 L 338 546 L 339 545 L 339 544 L 340 543 L 340 542 L 341 541 L 341 540 L 342 539 L 342 538 L 343 537 L 343 536 L 344 535 L 344 534 L 345 533 L 346 532 L 346 531 L 347 530 L 347 529 L 348 528 L 349 527 L 349 526 L 350 525 L 350 524 L 351 523 L 352 522 L 353 521 L 354 520 L 355 519 L 356 518 L 357 517 L 358 516 L 359 515 L 360 514 L 361 514 L 362 513 L 363 513 L 364 512 L 365 512 L 366 512 L 367 511 L 368 511 L 369 510 L 370 510 L 371 510 L 372 509 L 373 509 L 374 509 L 375 508 L 376 508 L 377 508 L 378 507 L 379 507 L 380 507 L 381 506 L 382 506 L 383 506 L 384 505 L 385 505 L 386 505 L 387 504 L 388 504 L 389 504 L 390 503 L 391 503 L 392 502 L 393 502 L 394 502 L 395 501 L 396 501 L 397 501 L 398 501 L 399 500 L 400 500 L 401 500 L 402 499 L 403 499 L 404 499 L 405 498 L 406 498 L 407 497 L 408 497 L 409 497 L 410 496 L 411 496 L 412 496 L 413 495 L 414 495 L 415 495 L 416 494 L 417 494 L 418 493 L 419 493 L 420 493 L 421 492 L 422 492 L 423 492 L 424 491 L 425 491 L 426 491 L 427 490 L 428 490 L 429 490 L 430 489 L 431 489 L 432 489 L 433 488 L 434 488 L 435 487 L 436 487 L 437 486 L 438 486 L 439 486 L 440 485 L 441 485 L 442 484 L 443 484 L 444 484 L 445 483 L 446 483 L 447 482 L 448 482 L 449 483 L 448 484 L 447 485 L 446 486 L 445 486 L 444 487 L 443 488 L 442 488 L 441 489 L 440 489 L 439 490 L 438 491 L 437 491 L 436 491 L 435 492 L 434 493 L 433 493 L 432 493 L 431 494 L 430 495 L 429 495 L 428 496 L 427 496 L 426 497 L 425 497 L 424 498 L 423 498 L 422 499 L 421 499 L 420 500 L 419 500 L 418 501 L 417 501 L 416 502 L 415 502 L 414 503 L 413 503 L 412 504 L 411 504 L 410 505 L 409 505 L 408 506 L 407 506 L 406 507 L 405 507 L 404 508 L 403 508 L 402 509 L 401 509 L 400 510 L 399 510 L 398 511 L 397 511 L 396 511 L 395 512 L 394 512 L 393 513 L 392 513 L 391 514 L 390 514 L 389 514 L 388 515 L 387 516 L 386 516 L 385 516 L 384 517 L 383 517 L 382 518 L 381 518 L 380 519 L 379 519 L 378 519 L 377 520 L 376 520 L 375 521 L 374 521 L 373 522 L 372 522 L 371 523 L 370 523 L 369 524 L 368 524 L 367 525 L 366 525 L 365 526 L 364 526 L 363 526 L 362 527 L 361 528 L 360 528 L 359 529 L 358 529 L 357 530 L 356 531 L 355 532 L 354 532 L 353 533 L 352 534 L 352 535 L 351 536 L 350 537 L 350 538 L 349 539 L 349 540 L 348 541 L 348 542 L 347 543 L 347 544 L 346 545 L 346 546 L 345 547 L 345 548 L 344 549 L 344 550 L 343 551 L 343 552 L 343 553 L 342 554 L 342 555 L 342 556 L 341 557 L 341 558 L 341 559 L 341 560 L 341 561 L 341 562 L 341 563 L 342 564 L 343 564 L 344 565 L 345 565 L 346 566 L 347 567 L 348 567 L 349 568 L 350 569 L 351 569 L 352 570 L 353 570 L 354 571 L 355 572 L 356 572 L 357 573 L 358 573 L 359 574 L 360 575 L 361 575 L 362 576 L 363 576 L 364 577 L 365 577 L 366 578 L 367 579 L 368 579 L 369 580 L 370 580 L 371 581 L 372 582 L 373 582 L 374 583 L 375 582 L 376 581 L 376 580 L 377 579 L 378 578 L 378 577 L 379 576 L 380 575 L 380 574 L 381 573 L 382 572 L 382 571 L 383 570 L 383 569 L 384 568 L 385 567 L 386 566 L 386 565 L 387 564 L 387 563 L 388 562 L 389 561 L 389 560 L 390 559 L 390 558 L 391 557 L 392 556 L 392 555 L 393 554 L 394 553 L 394 552 L 395 551 L 395 550 L 396 549 L 396 548 L 397 547 L 398 546 L 398 545 L 399 544 L 400 543 L 400 542 L 401 541 L 401 540 L 402 539 L 403 538 L 403 537 L 404 536 L 404 535 L 405 534 L 405 533 L 406 532 L 407 531 L 407 530 L 408 529 L 408 528 L 409 527 L 410 526 L 410 525 L 411 524 L 411 523 L 412 522 L 412 521 L 413 520 L 414 519 L 414 518 L 415 517 L 416 516 L 416 515 L 417 514 L 417 513 L 418 512 L 419 511 L 419 510 L 420 509 L 421 508 L 422 507 L 423 506 L 424 506 L 425 506 L 426 506 L 427 506 L 428 506 L 429 506 L 430 506 L 431 506 L 432 506 L 433 506 L 434 505 L 435 505 L 436 505 L 437 505 L 438 505 L 439 505 L 440 505 L 441 505 L 442 505 L 443 505 L 444 505 L 445 505 L 446 505 L 447 505 L 448 504 L 449 504 L 450 504 L 451 504 L 452 504 L 453 504 L 454 504 L 455 504 L 456 504 L 457 504 L 458 504 L 459 504 L 460 504 L 461 504 L 462 504 L 463 504 L 464 503 L 465 503 L 466 503 L 467 503 L 468 503 L 469 503 L 470 503 L 471 503 L 472 503 L 473 503 L 474 503 L 475 503 L 476 503 L 477 502 L 478 502 L 479 502 L 480 502 L 481 502 L 482 502 L 483 502 L 484 502 L 485 502 L 486 502 L 487 502 L 488 502 L 489 502 L 490 502 L 491 502 L 492 502 L 493 502 L 494 502 L 495 502 L 496 501 L 497 501 L 498 501 L 499 501 L 500 501 L 501 501 L 502 501 L 503 501 L 504 501 L 505 501 L 506 501 L 507 501 L 508 501 L 509 501 L 510 501 L 511 501 L 512 501 L 513 501 L 514 501 L 515 501 L 516 501 L 517 501 L 518 501 L 519 501 L 520 501 L 521 501 L 522 501 L 523 501 L 524 501 L 525 501 L 526 501 L 527 501 L 528 501 L 529 501 L 530 501 L 531 501 L 532 501 L 533 501 L 534 501 L 535 501 L 536 501 L 537 502 L 538 502 L 539 502 L 540 502 L 541 502 L 542 502 L 543 502 L 544 502 L 545 502 L 546 502 L 547 502 L 548 502 L 549 503 L 550 503 L 551 503 L 552 503 L 553 503 L 554 504 L 555 504 L 556 505 L 556 506 L 556 507 L 557 508 L 557 509 L 557 510 L 557 511 L 557 512 L 557 513 L 556 514 L 556 515 L 556 516 L 556 517 L 556 518 L 556 519 L 556 520 L 556 521 L 556 522 L 556 523 L 556 524 L 556 525 L 555 526 L 555 527 L 555 528 L 555 529 L 555 530 L 555 531 L 555 532 L 554 533 L 554 534 L 554 535 L 554 536 L 554 537 L 554 538 L 553 539 L 553 540 L 553 541 L 553 542 L 553 543 L 553 544 L 552 545 L 552 546 L 552 547 L 552 548 L 552 549 L 551 550 L 551 551 L 551 552 L 551 553 L 551 554 L 550 555 L 550 556 L 550 557 L 550 558 L 549 559 L 549 560 L 549 561 L 549 562 L 548 563 L 548 564 L 548 565 L 548 566 L 548 567 L 547 568 L 547 569 L 547 570 L 547 571 L 546 572 L 546 573 L 546 574 L 546 575 L 545 576 L 545 577 L 545 578 L 545 579 L 544 580 L 544 581 L 544 582 L 544 583 L 543 584 L 543 585 L 543 586 L 543 587 L 543 588 L 544 587 L 545 587 L 546 587 L 547 586 L 548 586 L 549 586 L 550 585 L 551 585 L 552 585 L 553 584 L 554 584 L 555 583 L 556 583 L 557 583 L 558 582 L 559 582 L 560 582 L 561 581 L 562 581 L 563 580 L 564 580 L 565 580 L 566 579 L 567 579 L 568 579 L 569 578 L 570 578 L 571 577 L 572 577 L 573 577 L 574 576 L 575 576 L 576 576 L 577 575 L 578 575 L 579 574 L 580 574 L 581 574 L 582 573 L 583 573 L 584 572 L 585 572 L 586 572 L 587 571 L 588 571 L 589 571 L 590 570 L 591 570 L 592 569 L 593 569 L 594 569 L 595 568 L 596 568 L 597 567 L 598 567 L 599 567 L 600 566 L 601 566 L 602 565 L 603 565 L 604 565 L 605 564 L 606 564 L 607 564 L 608 563 L 609 563 L 610 562 L 611 562 L 612 562 L 613 561 L 614 561 L 615 560 L 616 560 L 617 559 L 618 559 L 619 559 L 620 558 L 621 558 L 622 558 L 623 557 L 624 557 L 625 556 L 626 556 L 627 556 L 628 555 L 629 555 L 630 554 L 631 554 L 632 554 L 633 553 L 634 553 L 635 552 L 636 552 L 637 552 L 638 551 L 639 551 L 640 551 L 641 550 L 642 550 L 643 549 L 644 549 L 645 549 L 646 548 L 647 548 L 648 547 L 649 547 L 650 547 L 651 546 L 652 546 L 653 546 L 654 545 L 655 545 L 656 544 L 657 544 L 658 543 L 659 543 L 660 543 L 661 542 L 662 542 L 663 541 L 664 541 L 665 541 L 666 540 L 667 540 L 668 540 L 669 539 L 670 539 L 671 539 L 672 538 L 673 538 L 674 537 L 675 537 L 676 536 L 677 536 L 678 536 L 679 535 L 680 535 L 681 535 L 682 534 L 683 534 L 684 533 L 685 533 L 686 533 L 687 532 L 688 532 L 689 531 L 689 530 L 689 529 L 688 528 L 688 527 L 688 526 L 687 525 L 687 524 L 686 523 L 685 522 L 685 521 L 684 520 L 684 519 L 683 518 L 682 517 L 682 516 L 681 515 L 680 514 L 679 513 L 678 512 L 677 511 L 676 510 L 676 509 L 675 508 L 674 507 L 673 506 L 672 505 L 671 505 L 670 504 L 669 503 L 668 502 L 667 502 L 666 501 L 665 500 L 664 500 L 663 499 L 662 498 L 661 498 L 660 497 L 659 497 L 658 496 L 657 496 L 656 495 L 655 495 L 654 495 L 653 494 L 652 494 L 651 494 L 650 493 L 649 493 L 648 493 L 647 493 L 646 492 L 645 492 L 644 492 L 643 492 L 642 491 L 641 491 L 640 491 L 639 491 L 638 491 L 637 491 L 636 491 L 635 491 L 634 491 L 633 490 L 632 490 L 631 490 L 630 490 L 629 490 L 628 490 L 627 490 L 626 490 L 625 490 L 624 489 L 623 489 L 622 489 L 621 489 L 620 489 L 619 489 L 618 489 L 617 488 L 616 488 L 615 488 L 614 488 L 613 488 L 612 488 L 611 488 L 610 488 L 609 487 L 608 487 L 607 487 L 606 487 L 605 487 L 604 486 L 603 486 L 602 486 L 601 486 L 600 486 L 599 485 L 598 485 L 597 485 L 596 485 L 595 484 L 594 484 L 593 484 L 592 483 L 591 483 L 590 482 L 589 482 L 588 481 L 587 480 L 586 480 L 585 480 L 584 480 L 584 481 L 583 482 L 582 483 L 581 484 L 580 485 L 579 486 L 578 486 L 577 487 L 576 488 L 575 489 L 574 489 L 573 490 L 572 491 L 571 491 L 570 492 L 569 493 L 568 493 L 567 494 L 566 494 L 565 495 L 564 495 L 563 495 L 562 496 L 561 496 L 560 496 L 559 497 L 558 497 L 557 497 L 556 497 L 555 498 L 554 498 L 553 498 L 552 498 L 551 498 L 550 498 L 549 498 L 548 498 L 547 498 L 546 498 L 545 498 L 544 497 L 543 497 L 542 497 L 541 497 L 540 497 L 539 496 L 539 495 L 540 494 L 541 494 L 542 493 L 543 493 L 544 492 L 545 492 L 546 492 L 547 491 L 548 491 L 549 491 L 550 490 L 551 490 L 552 489 L 553 489 L 554 488 L 555 488 L 556 487 L 557 487 L 558 486 L 559 486 L 560 485 L 561 484 L 562 484 L 563 483 L 564 482 L 565 482 L 566 481 L 567 480 L 568 479 L 569 479 L 570 478 L 571 477 L 572 476 L 573 475 L 574 474 L 575 473 L 576 472 L 577 471 L 578 470 L 579 469 L 580 468 L 580 467 L 581 466 L 581 465 L 582 464 L 582 463 L 583 462 L 584 462 L 585 463 L 586 463 L 587 464 L 588 464 L 589 465 L 590 465 L 591 465 L 592 466 L 593 466 L 594 467 L 595 467 L 596 468 L 597 468 L 598 469 L 599 469 L 600 469 L 601 470 L 602 470 L 603 470 L 604 471 L 605 471 L 606 471 L 607 472 L 608 472 L 609 473 L 610 473 L 611 473 L 612 474 L 613 474 L 614 475 L 615 475 L 616 475 L 617 475 L 618 476 L 619 476 L 620 476 L 621 477 L 622 477 L 623 478 L 624 478 L 625 478 L 626 479 L 627 479 L 628 479 L 629 480 L 630 480 L 631 480 L 632 481 L 633 481 L 634 481 L 635 481 L 636 482 L 637 482 L 638 482 L 639 483 L 640 483 L 641 483 L 642 484 L 643 484 L 644 484 L 645 484 L 646 485 L 647 485 L 648 485 L 649 486 L 650 486 L 651 486 L 652 486 L 653 487 L 654 487 L 655 487 L 656 487 L 657 488 L 658 488 L 659 488 L 660 489 L 661 489 L 662 489 L 663 489 L 664 490 L 665 490 L 666 490 L 667 490 L 668 491 L 669 491 L 670 491 L 671 491 L 672 492 L 673 492 L 674 492 L 675 492 L 676 493 L 677 493 L 678 494 L 679 494 L 680 494 L 681 495 L 682 495 L 683 496 L 684 496 L 685 497 L 686 498 L 687 498 L 688 499 L 689 500 L 690 501 L 691 502 L 692 503 L 693 504 L 694 505 L 695 506 L 695 507 L 696 508 L 697 509 L 697 510 L 698 511 L 698 512 L 699 513 L 699 514 L 700 515 L 700 516 L 701 517 L 701 518 L 702 519 L 703 518 L 704 517 L 704 516 L 704 515 L 703 514 L 703 513 L 703 512 L 702 511 L 702 510 L 701 509 L 701 508 L 700 507 L 700 506 L 699 505 L 698 504 L 698 503 L 697 502 L 697 501 L 696 500 L 695 499 L 694 498 L 693 497 L 692 496 L 691 495 L 690 495 L 689 494 L 688 493 L 687 493 L 686 492 L 685 492 L 684 491 L 683 491 L 682 490 L 681 490 L 680 490 L 679 489 L 678 489 L 677 489 L 676 488 L 675 488 L 674 488 L 673 488 L 672 487 L 671 487 L 670 487 L 669 487 L 668 486 L 667 486 L 666 486 L 665 486 L 664 485 L 663 485 L 662 485 L 661 485 L 660 484 L 659 484 L 658 484 L 657 484 L 656 483 L 655 483 L 654 483 L 653 483 L 652 482 L 651 482 L 650 482 L 649 482 L 648 481 L 647 481 L 646 481 L 645 480 L 644 480 L 643 480 L 642 480 L 641 479 L 640 479 L 639 479 L 638 478 L 637 478 L 636 478 L 635 477 L 634 477 L 633 477 L 632 476 L 631 476 L 630 476 L 629 476 L 628 475 L 627 475 L 626 475 L 625 474 L 624 474 L 623 474 L 622 473 L 621 473 L 620 473 L 619 472 L 618 472 L 617 472 L 616 471 L 615 471 L 614 471 L 613 470 L 612 470 L 611 470 L 610 469 L 609 469 L 608 469 L 607 468 L 606 468 L 605 468 L 604 467 L 603 467 L 602 466 L 601 466 L 600 466 L 599 465 L 598 465 L 597 465 L 596 464 L 595 464 L 594 464 L 593 463 L 592 463 L 591 462 L 590 462 L 589 461 L 588 461 L 587 461 L 586 460 L 585 459 L 584 459 L 583 459 L 582 458 L 581 457 L 580 456 L 579 455 L 578 454 L 577 453 L 577 452 L 576 451 L 576 450 L 575 449 L 575 448 L 575 447 L 575 446 L 574 445 L 574 444 L 574 443 L 574 442 L 574 441 L 573 440 L 573 439 L 573 438 L 573 437 L 573 436 L 573 435 L 573 434 L 573 433 L 573 432 L 573 431 L 572 430 L 572 429 L 572 428 L 572 427 L 572 426 L 572 425 L 572 424 L 571 424 L 571 425 L 571 426 L 571 427 L 571 428 L 570 429 L 570 430 L 570 431 L 569 432 L 568 433 L 568 434 L 567 435 L 567 436 L 566 437 L 565 438 L 565 439 L 564 440 L 563 441 L 563 442 L 562 443 L 561 444 L 560 445 L 559 446 L 558 447 L 557 448 L 556 449 L 556 450 L 555 451 L 554 452 L 553 453 L 552 454 L 551 455 L 550 456 L 549 457 L 548 458 L 547 459 L 546 460 L 545 461 L 544 462 L 543 463 L 542 464 L 541 465 L 540 466 L 539 467 L 538 468 L 537 469 L 536 470 L 535 471 L 534 472 L 533 473 L 532 474 L 531 475 L 530 475 L 529 476 L 528 477 L 527 478 L 526 479 L 525 480 L 524 481 L 523 482 L 522 483 L 521 484 L 520 485 L 519 486 L 518 486 L 517 487 L 516 488 L 515 489 L 514 490 L 513 491 L 512 492 L 511 491 L 511 490 L 512 489 L 513 488 L 514 487 L 515 486 L 515 485 L 516 484 L 517 483 L 518 482 L 519 481 L 520 480 L 521 479 L 522 478 L 523 477 L 524 476 L 525 475 L 525 474 L 526 473 L 527 472 L 528 471 L 529 470 L 530 469 L 531 468 L 532 467 L 533 466 L 534 465 L 535 464 L 536 463 L 537 462 L 538 461 L 539 460 L 540 459 L 541 458 L 542 457 L 543 456 L 544 455 L 545 454 L 546 453 L 547 452 L 548 451 L 549 450 L 550 449 L 551 448 L 552 447 L 553 446 L 554 445 L 555 444 L 556 443 L 557 442 L 557 441 L 558 440 L 559 439 L 560 438 L 561 437 L 561 436 L 562 435 L 563 434 L 563 433 L 564 432 L 564 431 L 565 430 L 565 429 L 566 428 L 566 427 L 566 426 L 567 425 L 567 424 L 567 423 L 567 422 L 566 422 L 565 422 L 565 423 L 565 424 L 565 425 L 564 426 L 564 427 L 563 428 L 562 429 L 562 430 L 561 431 L 560 432 L 559 433 L 558 434 L 557 435 L 556 436 L 555 437 L 554 438 L 553 439 L 552 440 L 551 441 L 550 442 L 549 443 L 548 444 L 547 445 L 546 446 L 545 447 L 544 448 L 543 449 L 542 450 L 541 451 L 540 451 L 539 452 L 538 453 L 537 454 L 536 455 L 535 456 L 534 457 L 533 458 L 532 459 L 531 460 L 530 461 L 529 462 L 528 463 L 527 464 L 526 465 L 525 466 L 524 467 L 523 468 L 522 469 L 521 470 L 520 471 L 519 472 L 518 473 L 517 474 L 516 475 L 516 476 L 515 477 L 514 478 L 513 479 L 512 480 L 511 481 L 510 482 L 509 483 L 509 484 L 508 485 L 507 486 L 507 487 L 506 488 L 505 489 L 504 490 L 504 491 L 503 492 L 502 493 L 501 494 L 500 495 L 499 495 L 498 495 L 497 495 L 496 495 L 495 495 L 494 495 L 493 495 L 492 495 L 491 496 L 490 496 L 489 496 L 488 496 L 487 496 L 486 496 L 485 496 L 484 496 L 483 496 L 482 496 L 481 496 L 480 496 L 479 496 L 478 497 L 477 496 L 477 495 L 478 494 L 479 493 L 480 492 L 481 491 L 482 490 L 483 489 L 484 488 L 485 487 L 486 486 L 487 485 L 488 484 L 489 483 L 490 482 L 491 481 L 492 480 L 493 479 L 493 478 L 494 477 L 495 476 L 496 475 L 496 474 L 497 473 L 498 472 L 499 471 L 499 470 L 500 469 L 500 468 L 501 467 L 502 466 L 502 465 L 503 464 L 504 463 L 504 462 L 505 461 L 505 460 L 506 459 L 507 458 L 507 457 L 508 456 L 509 455 L 509 454 L 510 453 L 510 452 L 511 451 L 512 450 L 512 449 L 513 448 L 513 447 L 514 446 L 515 445 L 515 444 L 516 443 L 516 442 L 517 441 L 518 440 L 518 439 L 519 438 L 519 437 L 520 436 L 521 435 L 521 434 L 522 433 L 523 432 L 523 431 L 524 430 L 524 429 L 525 428 L 526 427 L 526 426 L 527 425 L 528 424 L 528 423 L 529 422 L 530 421 L 530 420 L 531 419 L 531 418 L 532 417 L 533 416 L 533 415 L 534 414 L 535 413 L 535 412 L 536 411 L 537 410 L 538 409 L 538 408 L 539 407 L 540 406 L 541 405 L 541 404 L 542 403 L 543 402 L 544 401 L 544 400 L 545 399 L 546 398 L 547 397 L 548 396 L 549 395 L 549 394 L 550 393 L 551 392 L 552 391 L 553 390 L 554 390 L 555 390 L 556 391 L 556 392 L 556 393 L 556 394 L 556 395 L 556 396 L 556 397 L 556 398 L 556 399 L 557 400 L 557 401 L 557 402 L 557 403 L 557 404 L 557 405 L 557 406 L 557 407 L 557 408 L 557 409 L 557 410 L 558 411 L 558 412 L 558 413 L 558 414 L 558 415 L 558 416 L 558 417 L 559 416 L 559 415 L 559 414 L 559 413 L 559 412 L 559 411 L 559 410 L 559 409 L 560 408 L 561 408 L 562 408 L 563 407 L 564 407 L 565 407 L 566 406 L 567 406 L 568 406 L 569 406 L 570 405 L 571 405 L 572 404 L 573 404 L 574 404 L 575 403 L 576 403 L 577 403 L 578 402 L 579 402 L 580 401 L 581 401 L 582 400 L 583 400 L 584 399 L 585 399 L 586 398 L 587 398 L 588 397 L 589 396 L 590 396 L 591 395 L 592 394 L 593 394 L 594 393 L 595 392 L 596 391 L 597 390 L 598 389 L 599 388 L 600 387 L 601 386 L 602 385 L 603 384 L 604 383 L 604 382 L 605 381 L 606 380 L 607 379 L 607 378 L 608 377 L 609 376 L 610 375 L 611 375 L 612 374 L 613 374 L 614 373 L 615 373 L 616 372 L 617 372 L 618 371 L 619 371 L 620 370 L 621 369 L 622 369 L 623 368 L 624 367 L 625 366 L 626 365 L 627 364 L 628 363 L 629 362 L 630 361 L 630 360 L 631 359 L 632 358 L 632 357 L 633 356 L 634 355 L 634 354 L 634 353 L 635 352 L 635 351 L 635 350 L 636 349 L 636 348 L 636 347 L 636 346 L 637 345 L 637 344 L 637 343 L 637 342 L 636 342 L 636 343 L 635 344 L 634 343 L 634 342 L 634 341 L 635 340 L 635 339 L 635 338 L 635 337 L 635 336 L 635 335 L 635 334 L 635 333 L 636 332 L 635 331 L 635 330 L 636 329 L 636 328 L 637 327 L 637 326 L 638 325 L 639 324 L 640 323 L 641 322 L 641 321 L 642 320 L 642 319 L 643 318 L 643 317 L 644 316 L 644 315 L 645 314 L 645 313 L 645 312 L 646 311 L 646 310 L 646 309 L 646 308 L 646 307 L 646 306 L 646 305 L 646 304 L 646 303 L 646 302 L 646 301 L 646 300 L 646 299 L 646 298 L 646 297 L 646 296 L 645 295 L 645 294 L 645 293 L 644 292 L 644 291 L 644 290 L 643 289 L 643 288 L 642 287 L 642 286 L 641 285 L 640 284 L 639 283 L 639 282 L 638 281 L 637 280 L 636 279 L 635 278 L 634 277 L 633 277 L 633 278 L 634 279 L 635 280 L 636 281 L 636 282 L 637 283 L 638 284 L 638 285 L 639 286 L 640 287 L 640 288 L 641 289 L 641 290 L 642 291 L 642 292 L 642 293 L 643 294 L 643 295 L 643 296 L 643 297 L 643 298 L 643 299 L 643 300 L 643 301 L 643 302 L 643 303 L 643 304 L 643 305 L 643 306 L 643 307 L 642 308 L 642 309 L 642 310 L 641 311 L 641 312 L 641 313 L 640 314 L 640 315 L 639 316 L 639 317 L 638 318 L 637 319 L 637 320 L 636 321 L 636 322 L 635 323 L 634 324 L 633 325 L 632 326 L 631 327 L 630 328 L 629 329 L 628 330 L 627 331 L 626 332 L 625 333 L 624 334 L 623 334 L 622 335 L 621 336 L 620 336 L 619 337 L 618 338 L 617 338 L 616 339 L 615 339 L 614 338 L 615 337 L 616 336 L 617 335 L 618 335 L 619 334 L 620 333 L 621 332 L 622 332 L 623 331 L 624 330 L 625 329 L 626 328 L 627 327 L 628 326 L 628 325 L 629 324 L 630 323 L 631 322 L 631 321 L 632 320 L 632 319 L 633 318 L 634 317 L 634 316 L 635 315 L 635 314 L 635 313 L 636 312 L 636 311 L 636 310 L 637 309 L 637 308 L 637 307 L 637 306 L 638 305 L 638 304 L 638 303 L 638 302 L 638 301 L 638 300 L 638 299 L 638 298 L 637 297 L 637 296 L 637 295 L 637 294 L 637 293 L 636 292 L 636 291 L 636 290 L 635 289 L 635 288 L 634 287 L 634 286 L 633 285 L 632 284 L 632 283 L 631 282 L 630 281 L 629 280 L 628 279 L 627 278 L 626 277 L 625 276 L 624 275 L 623 275 L 623 276 L 623 277 L 623 278 L 623 279 L 623 280 L 623 281 L 623 282 L 623 283 L 623 284 L 623 285 L 623 286 L 623 287 L 622 288 L 622 289 L 622 290 L 622 291 L 621 292 L 621 293 L 621 294 L 620 295 L 620 296 L 619 297 L 619 298 L 618 299 L 617 300 L 616 301 L 615 302 L 615 303 L 614 304 L 613 305 L 612 305 L 611 306 L 610 307 L 609 308 L 608 308 L 607 309 L 606 309 L 605 310 L 604 310 L 603 309 L 604 308 L 605 307 L 606 307 L 607 306 L 608 305 L 609 304 L 610 303 L 611 302 L 612 301 L 613 300 L 614 299 L 614 298 L 615 297 L 615 296 L 616 295 L 616 294 L 617 293 L 617 292 L 618 291 L 618 290 L 618 289 L 619 288 L 619 287 L 619 286 L 620 285 L 620 284 L 620 283 L 620 282 L 620 281 L 620 280 L 620 279 L 620 278 L 619 278 L 619 279 L 619 280 L 618 281 L 618 282 L 617 283 L 617 284 L 616 285 L 615 286 L 614 285 L 614 284 L 615 283 L 615 282 L 616 281 L 616 280 L 616 279 L 617 278 L 617 277 L 617 276 L 617 275 L 617 274 L 617 273 L 617 272 L 617 271 L 617 270 L 618 269 L 619 269 L 620 269 L 621 269 L 622 270 L 623 270 L 624 270 L 625 271 L 626 271 L 627 272 L 628 272 L 629 273 L 630 273 L 631 273 L 632 274 L 633 274 L 634 274 L 635 273 L 636 273 L 637 273 L 638 273 L 639 273 L 640 273 L 641 273 L 642 272 L 643 272 L 644 272 L 645 271 L 646 271 L 647 271 L 648 271 L 649 270 L 650 270 L 651 270 L 652 269 L 653 269 L 654 268 L 655 268 L 656 268 L 657 267 L 658 267 L 659 266 L 660 266 L 661 265 L 662 265 L 663 264 L 664 263 L 665 263 L 666 262 L 667 261 L 668 260 L 669 259 L 670 258 L 671 257 L 672 256 L 673 255 L 674 254 L 674 253 L 675 252 L 675 251 L 676 250 L 676 249 L 677 248 L 677 247 L 678 246 L 678 245 L 678 244 L 679 243 L 679 242 L 679 241 L 680 240 L 680 239 L 680 238 L 681 237 L 681 236 L 681 235 L 681 234 L 681 233 L 682 232 L 682 231 L 682 230 L 682 229 L 682 228 L 682 227 L 683 226 L 683 225 L 683 224 L 683 223 L 683 222 L 684 221 L 684 220 L 684 219 L 684 218 L 684 217 L 684 216 L 684 215 L 684 214 L 684 213 L 684 212 L 684 211 L 684 210 L 684 209 L 684 208 L 684 207 L 684 206 L 684 205 L 684 204 L 684 203 L 685 202 L 685 201 L 685 200 L 685 199 L 685 198 L 685 197 L 685 196 L 685 195 L 684 194 L 684 193 L 684 192 L 684 191 L 684 190 L 684 189 L 684 188 L 684 187 L 684 186 L 684 185 L 684 184 L 684 183 L 684 182 L 684 181 L 683 180 L 683 179 L 683 178 L 683 177 L 682 176 L 682 175 L 682 174 L 681 173 L 681 172 L 680 171 L 680 170 L 679 169 L 679 168 L 678 167 L 677 166 L 677 165 L 676 164 L 675 163 L 674 162 L 673 161 L 673 160 L 672 159 L 671 158 L 670 157 L 669 156 L 668 156 L 667 155 L 666 154 L 665 153 L 664 152 L 663 151 L 662 151 L 661 150 L 660 149 L 659 148 L 658 148 L 657 147 L 656 146 L 655 145 L 654 145 L 653 144 L 652 143 L 651 142 L 650 142 L 649 141 L 648 141 L 647 140 L 646 139 L 645 138 L 644 138 L 643 137 L 642 136 L 641 135 L 640 135 L 639 134 L 638 133 L 637 132 L 636 132 L 635 131 L 634 130 L 633 129 L 632 129 L 631 128 L 630 127 L 629 126 L 628 125 L 627 124 L 626 123 L 625 122 L 624 121 L 623 120 L 622 119 L 621 118 L 620 117 L 619 116 L 619 115 L 618 114 L 617 113 L 616 112 L 616 111 L 615 110 L 614 109 L 614 108 L 613 107 L 612 106 L 612 105 L 611 104 L 611 103 L 610 102 L 609 101 L 608 100 L 607 99 L 607 98 L 606 97 L 605 96 L 604 95 L 604 94 L 603 93 L 602 92 L 601 91 L 600 91 L 599 90 L 598 89 L 597 88 L 596 88 L 595 87 L 594 86 L 593 86 L 592 85 L 591 84 L 590 84 L 589 83 L 588 83 L 587 82 L 586 82 L 585 82 L 584 81 L 583 81 L 582 80 L 581 80 L 580 80 L 579 79 L 578 79 L 577 79 L 576 78 L 575 78 L 574 78 L 573 77 L 572 77 L 571 77 L 570 77 L 569 76 L 568 76 L 567 76 L 566 75 L 565 75 L 564 75 L 563 75 L 562 74 L 561 74 L 560 74 L 559 74 L 558 74 L 557 73 L 556 73 L 555 73 L 554 73 L 553 72 L 552 72 L 551 72 L 550 72 L 549 72 L 548 72 L 547 71 L 546 71 L 545 71 L 544 71 L 543 71 L 542 71 L 541 70 L 540 70 L 539 70 L 538 70 L 537 70 L 536 69 L 535 69 L 534 69 L 533 69 L 532 69 L 531 69 L 530 69 L 529 68 L 528 68 L 527 68 L 526 68 L 525 68 L 524 68 L 523 67 L 522 67 L 521 67 L 520 67 L 519 67 L 518 67 L 517 67 L 516 67 L 515 66 L 514 66 L 513 66 L 512 66 L 511 66 L 510 66 L 509 66 L 508 65 L 507 65 L 506 65 L 505 65 L 504 65 L 503 65 L 502 65 L 501 65 L 500 65 L 499 64 L 498 64 L 497 64 L 496 64 L 495 64 L 494 64 L 493 64 L 492 64 L 491 64 L 490 64 L 489 63 L 488 63 L 487 63 L 486 63 L 485 63 L 484 63 L 483 63 L 482 63 L 481 63 L 480 63 L 479 63 L 478 63 L 477 63 L 476 62 L 475 62 L 474 62 L 473 62 L 472 62 L 471 62 L 470 62 L 469 62 L 468 62 L 467 62 L 466 62 L 465 62 L 464 62 L 463 62 L 462 62 L 461 62 L 460 62 L 459 62 L 458 62 L 457 62 L 456 62 L 455 62 L 454 62 L 453 62 L 452 62 L 451 62 L 450 62 L 449 62 L 448 62 L 447 62 L 446 62 L 445 62 L 444 62 L 443 62 L 442 62 L 441 62 L 440 62 L 439 62 Z M 510 492 L 511 491 L 512 492 L 511 493 Z M 455 489 L 456 488 L 457 489 L 457 490 L 458 491 L 458 492 L 458 493 L 458 494 L 458 495 L 457 496 L 457 497 L 456 498 L 455 499 L 454 499 L 453 498 L 453 497 L 453 496 L 454 495 L 454 494 L 454 493 L 455 492 L 455 491 L 455 490 Z M 460 451 L 461 450 L 462 450 L 463 451 L 462 452 L 461 453 L 460 454 L 459 455 L 459 456 L 458 457 L 457 458 L 456 459 L 455 460 L 455 461 L 454 462 L 454 463 L 454 464 L 453 465 L 453 466 L 453 467 L 453 468 L 453 469 L 453 470 L 454 471 L 454 472 L 454 473 L 455 474 L 456 475 L 457 476 L 457 477 L 458 478 L 459 479 L 459 480 L 460 481 L 461 482 L 461 483 L 462 484 L 462 485 L 463 486 L 463 487 L 464 488 L 464 489 L 464 490 L 465 491 L 465 492 L 464 493 L 464 494 L 464 495 L 463 496 L 462 497 L 461 496 L 461 495 L 461 494 L 461 493 L 461 492 L 461 491 L 460 490 L 460 489 L 460 488 L 459 487 L 459 486 L 458 485 L 457 484 L 456 483 L 455 482 L 455 481 L 454 480 L 453 479 L 452 478 L 452 477 L 451 476 L 451 475 L 451 474 L 450 473 L 450 472 L 450 471 L 450 470 L 450 469 L 450 468 L 450 467 L 450 466 L 450 465 L 450 464 L 450 463 L 450 462 L 451 461 L 451 460 L 452 459 L 453 458 L 453 457 L 454 456 L 455 455 L 456 454 L 457 453 L 458 452 L 459 452 Z M 462 450 L 463 449 L 464 450 L 463 451 Z M 463 360 L 464 359 L 465 359 L 466 360 L 467 361 L 466 362 L 465 362 L 464 361 Z M 462 359 L 463 358 L 464 359 L 463 360 Z M 461 357 L 462 356 L 463 357 L 463 358 L 462 359 L 461 358 Z M 630 350 L 631 349 L 632 350 L 632 351 L 631 352 L 631 353 L 630 354 L 629 355 L 628 356 L 628 357 L 627 358 L 626 359 L 625 360 L 624 361 L 623 362 L 622 363 L 621 364 L 620 364 L 619 365 L 618 366 L 617 366 L 616 367 L 615 367 L 614 368 L 613 368 L 612 368 L 611 368 L 610 369 L 609 369 L 608 369 L 607 369 L 606 369 L 605 369 L 604 369 L 603 368 L 602 368 L 601 368 L 600 368 L 599 367 L 598 367 L 597 366 L 596 366 L 595 365 L 594 364 L 593 363 L 594 362 L 595 362 L 596 363 L 597 363 L 598 364 L 599 364 L 600 364 L 601 364 L 602 365 L 603 365 L 604 365 L 605 365 L 606 365 L 607 365 L 608 365 L 609 365 L 610 364 L 611 364 L 612 364 L 613 364 L 614 363 L 615 363 L 616 363 L 617 362 L 618 362 L 619 361 L 620 360 L 621 360 L 622 359 L 623 358 L 624 357 L 625 356 L 626 355 L 627 354 L 628 353 L 629 352 L 629 351 Z M 399 345 L 400 344 L 401 345 L 400 346 Z M 633 344 L 634 343 L 635 344 L 635 345 L 635 346 L 634 347 L 634 348 L 633 349 L 632 350 L 631 349 L 631 348 L 632 347 L 632 346 L 633 345 Z M 400 343 L 401 342 L 402 343 L 402 344 L 401 345 L 400 344 Z M 611 340 L 612 339 L 613 340 L 612 341 Z M 612 339 L 613 338 L 614 338 L 615 339 L 614 340 L 613 340 Z M 402 338 L 403 337 L 404 337 L 405 338 L 404 339 L 404 340 L 404 341 L 403 342 L 402 343 L 401 342 L 401 341 L 402 340 L 402 339 Z M 579 337 L 580 336 L 581 336 L 582 337 L 583 338 L 584 339 L 585 340 L 585 341 L 585 342 L 585 343 L 584 344 L 584 345 L 583 346 L 582 347 L 581 348 L 580 348 L 579 348 L 578 348 L 577 347 L 576 346 L 575 345 L 576 344 L 577 344 L 578 344 L 579 344 L 580 343 L 581 342 L 580 342 L 579 342 L 578 341 L 578 340 L 578 339 L 578 338 Z M 580 314 L 581 313 L 582 313 L 583 313 L 584 313 L 585 313 L 586 313 L 587 314 L 588 314 L 589 315 L 590 316 L 591 317 L 592 318 L 592 319 L 592 320 L 592 321 L 592 322 L 592 323 L 591 324 L 591 325 L 590 326 L 590 327 L 589 328 L 588 329 L 588 330 L 587 331 L 586 332 L 586 333 L 585 334 L 584 335 L 583 334 L 583 333 L 583 332 L 582 332 L 581 332 L 580 332 L 579 333 L 578 333 L 577 334 L 576 335 L 575 335 L 574 334 L 573 333 L 573 332 L 573 331 L 573 330 L 573 329 L 573 328 L 573 327 L 573 326 L 573 325 L 573 324 L 573 323 L 574 322 L 574 321 L 575 320 L 575 319 L 576 318 L 576 317 L 577 316 L 578 315 L 579 314 Z M 457 311 L 458 310 L 459 311 L 458 312 Z M 434 311 L 435 310 L 436 311 L 437 311 L 438 311 L 439 311 L 440 311 L 441 311 L 442 311 L 443 311 L 444 311 L 445 311 L 446 311 L 447 311 L 448 311 L 449 312 L 448 313 L 447 314 L 446 315 L 445 315 L 444 316 L 443 316 L 442 316 L 441 316 L 440 316 L 439 316 L 438 316 L 437 316 L 436 316 L 435 315 L 435 314 L 435 313 L 434 312 Z M 456 309 L 457 308 L 458 309 L 458 310 L 457 311 L 456 310 Z M 455 308 L 456 307 L 457 308 L 456 309 Z M 445 306 L 446 305 L 447 305 L 448 306 L 449 307 L 448 308 L 447 309 L 446 308 L 445 307 Z M 434 306 L 435 305 L 436 305 L 437 305 L 438 306 L 438 307 L 437 308 L 436 309 L 435 308 L 434 307 Z M 427 305 L 428 304 L 429 304 L 430 304 L 431 305 L 431 306 L 431 307 L 431 308 L 432 309 L 432 310 L 432 311 L 432 312 L 433 313 L 433 314 L 432 315 L 431 314 L 430 314 L 429 313 L 428 312 L 427 311 L 426 310 L 425 309 L 425 308 L 425 307 L 425 306 L 426 305 Z M 452 304 L 453 303 L 454 304 L 453 305 Z M 451 303 L 452 302 L 453 303 L 452 304 Z M 450 302 L 451 301 L 452 302 L 451 303 Z M 397 297 L 398 296 L 399 296 L 400 297 L 400 298 L 400 299 L 399 300 L 399 301 L 398 302 L 397 303 L 396 304 L 395 305 L 394 306 L 393 306 L 392 307 L 391 307 L 390 307 L 389 308 L 388 308 L 387 308 L 386 308 L 385 307 L 385 306 L 386 305 L 387 305 L 388 304 L 389 304 L 390 303 L 391 303 L 392 302 L 393 302 L 394 301 L 395 301 L 396 300 L 396 299 L 397 298 Z M 625 296 L 626 295 L 627 296 L 628 297 L 628 298 L 628 299 L 628 300 L 628 301 L 628 302 L 628 303 L 627 304 L 627 305 L 626 306 L 626 307 L 625 308 L 624 309 L 624 310 L 623 311 L 622 312 L 621 313 L 620 313 L 619 314 L 618 315 L 617 315 L 616 315 L 615 315 L 614 315 L 613 315 L 612 315 L 611 314 L 610 314 L 609 314 L 608 313 L 608 312 L 608 311 L 609 310 L 610 310 L 611 310 L 612 309 L 613 309 L 614 308 L 615 307 L 616 306 L 617 306 L 618 305 L 619 304 L 620 303 L 621 302 L 622 301 L 622 300 L 623 299 L 624 298 L 624 297 Z M 435 296 L 436 295 L 437 295 L 438 295 L 439 295 L 440 295 L 441 296 L 442 296 L 443 296 L 444 297 L 445 297 L 446 297 L 447 298 L 448 299 L 449 299 L 450 300 L 451 301 L 450 302 L 449 302 L 448 301 L 447 301 L 446 300 L 445 300 L 444 299 L 443 299 L 442 298 L 441 298 L 440 298 L 439 297 L 438 297 L 437 297 L 436 297 Z M 394 295 L 395 294 L 396 295 L 395 296 Z M 613 286 L 614 285 L 615 286 L 614 287 Z M 416 281 L 417 280 L 418 280 L 419 280 L 420 280 L 421 281 L 422 281 L 423 281 L 424 282 L 425 282 L 426 282 L 427 283 L 428 284 L 429 284 L 430 285 L 431 286 L 432 286 L 433 287 L 434 287 L 435 288 L 436 289 L 437 289 L 438 290 L 438 291 L 437 292 L 436 292 L 435 293 L 434 293 L 433 293 L 432 293 L 431 293 L 430 293 L 429 293 L 428 293 L 427 294 L 426 294 L 425 294 L 424 295 L 423 295 L 422 295 L 421 295 L 420 296 L 419 297 L 418 297 L 417 298 L 416 298 L 415 299 L 414 300 L 413 300 L 412 300 L 411 300 L 410 299 L 409 298 L 408 297 L 408 296 L 408 295 L 408 294 L 407 293 L 407 292 L 407 291 L 407 290 L 407 289 L 408 288 L 408 287 L 409 286 L 409 285 L 410 284 L 411 283 L 412 283 L 413 282 L 414 281 L 415 281 Z M 608 261 L 609 260 L 610 260 L 611 260 L 612 261 L 613 262 L 613 263 L 613 264 L 614 265 L 614 266 L 614 267 L 614 268 L 615 269 L 615 270 L 615 271 L 615 272 L 615 273 L 615 274 L 614 275 L 614 276 L 614 277 L 614 278 L 614 279 L 613 280 L 613 281 L 612 282 L 612 283 L 611 284 L 610 285 L 609 286 L 608 287 L 607 288 L 606 287 L 606 286 L 607 285 L 608 284 L 609 283 L 609 282 L 610 281 L 610 280 L 611 279 L 611 278 L 611 277 L 612 276 L 612 275 L 612 274 L 612 273 L 612 272 L 612 271 L 612 270 L 612 269 L 612 268 L 612 267 L 611 266 L 610 266 L 609 267 L 608 268 L 607 269 L 606 270 L 605 271 L 604 272 L 603 272 L 602 273 L 601 274 L 600 274 L 599 274 L 598 275 L 597 275 L 596 275 L 595 276 L 594 276 L 593 276 L 592 276 L 591 276 L 590 276 L 589 276 L 588 277 L 587 277 L 586 277 L 585 277 L 584 277 L 583 277 L 582 276 L 581 276 L 580 276 L 579 275 L 580 274 L 581 274 L 582 273 L 583 273 L 584 272 L 585 272 L 586 272 L 587 271 L 588 271 L 589 270 L 590 270 L 591 269 L 592 269 L 593 268 L 594 268 L 595 267 L 596 267 L 597 266 L 598 266 L 599 266 L 600 265 L 601 265 L 602 264 L 603 263 L 604 263 L 605 262 L 606 262 L 607 261 Z M 569 251 L 570 250 L 571 250 L 572 250 L 573 251 L 574 252 L 574 253 L 575 254 L 576 255 L 576 256 L 575 257 L 574 256 L 573 255 L 572 254 L 571 253 L 570 252 Z M 427 228 L 428 227 L 429 227 L 430 228 L 431 229 L 432 230 L 433 231 L 434 231 L 435 232 L 436 233 L 437 233 L 438 234 L 439 235 L 440 235 L 441 236 L 442 236 L 443 237 L 444 237 L 445 238 L 446 238 L 447 239 L 448 239 L 449 240 L 450 240 L 451 241 L 452 241 L 453 242 L 454 242 L 455 242 L 456 242 L 457 243 L 458 243 L 459 243 L 460 244 L 461 244 L 462 244 L 463 244 L 464 244 L 465 245 L 466 245 L 467 245 L 468 245 L 469 245 L 470 246 L 471 246 L 472 246 L 473 246 L 474 246 L 475 246 L 476 246 L 477 246 L 478 246 L 479 246 L 480 246 L 481 246 L 482 246 L 483 246 L 484 246 L 485 246 L 486 245 L 487 245 L 488 245 L 489 245 L 490 245 L 491 245 L 492 244 L 493 244 L 494 244 L 495 244 L 496 244 L 497 243 L 498 243 L 499 243 L 500 243 L 501 243 L 502 242 L 503 242 L 504 242 L 505 242 L 506 242 L 507 242 L 508 242 L 509 242 L 510 242 L 511 242 L 512 242 L 513 242 L 514 242 L 515 242 L 516 243 L 517 243 L 518 243 L 519 244 L 520 244 L 521 244 L 522 244 L 523 245 L 524 245 L 525 245 L 526 245 L 527 246 L 528 246 L 529 246 L 530 246 L 531 246 L 532 247 L 533 247 L 534 247 L 535 247 L 536 247 L 537 247 L 538 247 L 539 247 L 540 247 L 541 247 L 542 247 L 543 248 L 544 248 L 545 248 L 546 248 L 547 248 L 548 248 L 549 248 L 550 248 L 551 248 L 552 248 L 553 248 L 554 248 L 555 248 L 556 248 L 557 248 L 558 249 L 558 250 L 559 251 L 559 252 L 560 253 L 560 254 L 560 255 L 560 256 L 561 257 L 561 258 L 561 259 L 562 260 L 562 261 L 562 262 L 563 263 L 563 264 L 563 265 L 563 266 L 564 267 L 564 268 L 564 269 L 565 270 L 565 271 L 565 272 L 565 273 L 566 274 L 566 275 L 566 276 L 567 277 L 567 278 L 567 279 L 567 280 L 568 281 L 568 282 L 568 283 L 568 284 L 568 285 L 568 286 L 568 287 L 569 288 L 569 289 L 569 290 L 569 291 L 569 292 L 569 293 L 569 294 L 569 295 L 569 296 L 569 297 L 569 298 L 569 299 L 569 300 L 569 301 L 569 302 L 568 303 L 568 304 L 568 305 L 567 306 L 567 307 L 566 308 L 566 309 L 565 310 L 564 311 L 564 312 L 563 313 L 562 314 L 562 315 L 561 316 L 560 317 L 560 318 L 561 317 L 562 316 L 563 315 L 564 314 L 565 313 L 566 312 L 567 311 L 567 310 L 568 309 L 569 308 L 570 307 L 570 306 L 571 305 L 571 304 L 572 303 L 573 303 L 574 303 L 575 304 L 576 305 L 577 306 L 577 307 L 578 307 L 579 308 L 580 309 L 579 310 L 578 311 L 577 311 L 576 312 L 575 313 L 574 313 L 574 314 L 573 315 L 573 316 L 573 317 L 573 318 L 573 319 L 572 320 L 572 321 L 572 322 L 572 323 L 572 324 L 572 325 L 572 326 L 572 327 L 572 328 L 571 329 L 571 330 L 571 331 L 571 332 L 571 333 L 571 334 L 571 335 L 571 336 L 571 337 L 571 338 L 571 339 L 571 340 L 571 341 L 570 342 L 570 343 L 570 344 L 570 345 L 570 346 L 570 347 L 569 348 L 569 349 L 569 350 L 569 351 L 568 352 L 568 353 L 568 354 L 568 355 L 567 356 L 567 357 L 567 358 L 567 359 L 566 360 L 566 361 L 566 362 L 565 363 L 565 364 L 565 365 L 564 366 L 564 367 L 564 368 L 563 369 L 563 370 L 562 371 L 562 372 L 561 373 L 561 374 L 560 375 L 560 376 L 559 377 L 559 378 L 558 379 L 557 380 L 557 381 L 556 382 L 555 383 L 555 384 L 554 385 L 553 386 L 552 387 L 551 388 L 550 389 L 549 390 L 548 391 L 547 392 L 546 393 L 545 394 L 544 395 L 543 396 L 542 397 L 541 398 L 540 399 L 539 400 L 538 400 L 537 401 L 536 402 L 535 403 L 534 403 L 533 404 L 532 405 L 531 406 L 530 407 L 529 407 L 528 408 L 527 409 L 526 410 L 525 410 L 524 411 L 523 412 L 522 413 L 521 413 L 520 414 L 519 415 L 518 415 L 517 416 L 516 417 L 515 417 L 514 418 L 513 419 L 512 419 L 511 420 L 510 420 L 509 421 L 508 421 L 507 422 L 506 422 L 505 423 L 504 423 L 503 424 L 502 424 L 501 425 L 500 425 L 499 425 L 498 426 L 497 426 L 496 427 L 495 427 L 494 427 L 493 428 L 492 428 L 491 428 L 490 428 L 489 429 L 488 429 L 487 429 L 486 429 L 485 430 L 484 430 L 483 430 L 482 430 L 481 430 L 480 430 L 479 430 L 478 430 L 477 429 L 476 429 L 475 429 L 474 429 L 473 429 L 472 428 L 471 428 L 470 428 L 469 427 L 468 427 L 467 427 L 466 426 L 465 425 L 464 425 L 463 424 L 462 423 L 461 423 L 460 422 L 459 421 L 458 420 L 457 419 L 456 418 L 455 418 L 454 417 L 453 416 L 452 415 L 452 414 L 451 413 L 450 412 L 449 411 L 448 410 L 447 409 L 446 408 L 445 408 L 444 407 L 445 406 L 444 405 L 443 404 L 442 403 L 442 402 L 441 401 L 440 400 L 440 399 L 439 398 L 438 397 L 438 396 L 437 395 L 436 394 L 436 393 L 435 392 L 434 391 L 434 390 L 433 389 L 433 388 L 432 387 L 431 386 L 431 385 L 430 384 L 430 383 L 429 382 L 428 381 L 428 380 L 427 379 L 427 378 L 426 377 L 426 376 L 425 375 L 425 374 L 424 373 L 424 372 L 423 371 L 422 370 L 422 369 L 422 368 L 421 367 L 421 366 L 420 365 L 420 364 L 419 363 L 419 362 L 418 361 L 418 360 L 418 359 L 417 358 L 417 357 L 416 356 L 416 355 L 416 354 L 415 353 L 415 352 L 415 351 L 414 350 L 414 349 L 414 348 L 414 347 L 413 346 L 413 345 L 413 344 L 413 343 L 412 342 L 412 341 L 412 340 L 412 339 L 411 338 L 411 337 L 411 336 L 411 335 L 411 334 L 411 333 L 411 332 L 411 331 L 411 330 L 411 329 L 411 328 L 411 327 L 411 326 L 411 325 L 411 324 L 411 323 L 411 322 L 411 321 L 412 320 L 412 319 L 412 318 L 412 317 L 412 316 L 412 315 L 412 314 L 412 313 L 412 312 L 412 311 L 412 310 L 412 309 L 412 308 L 412 307 L 412 306 L 413 305 L 414 306 L 415 306 L 416 306 L 417 306 L 418 307 L 419 307 L 420 308 L 420 309 L 419 310 L 418 311 L 418 312 L 418 313 L 419 313 L 420 313 L 421 312 L 422 312 L 423 312 L 424 313 L 424 314 L 423 315 L 423 316 L 424 316 L 425 316 L 426 316 L 427 317 L 427 318 L 428 317 L 429 317 L 430 317 L 431 317 L 432 318 L 432 319 L 433 318 L 434 318 L 435 318 L 436 318 L 437 319 L 438 318 L 439 318 L 440 318 L 441 318 L 442 317 L 443 317 L 444 317 L 445 317 L 446 317 L 447 316 L 448 316 L 449 315 L 449 314 L 449 313 L 450 312 L 450 311 L 451 310 L 451 309 L 452 308 L 453 308 L 454 309 L 455 310 L 455 311 L 456 312 L 455 313 L 454 314 L 453 314 L 453 315 L 454 315 L 455 315 L 456 315 L 457 315 L 458 315 L 459 315 L 460 315 L 461 316 L 462 317 L 463 318 L 463 319 L 464 320 L 464 321 L 465 322 L 465 323 L 465 324 L 465 325 L 465 326 L 465 327 L 465 328 L 465 329 L 465 330 L 465 331 L 465 332 L 465 333 L 464 334 L 464 335 L 464 336 L 464 337 L 463 338 L 463 339 L 463 340 L 462 341 L 462 342 L 461 343 L 461 344 L 461 345 L 460 346 L 459 347 L 459 348 L 458 349 L 458 350 L 457 351 L 457 352 L 456 353 L 456 354 L 456 355 L 456 356 L 456 357 L 456 358 L 456 359 L 456 360 L 457 361 L 458 362 L 459 363 L 460 363 L 461 364 L 462 364 L 463 365 L 464 365 L 465 365 L 466 366 L 467 366 L 468 366 L 469 366 L 470 367 L 471 367 L 472 367 L 473 367 L 474 367 L 475 367 L 476 366 L 475 366 L 474 366 L 473 366 L 472 365 L 471 365 L 470 365 L 469 364 L 468 364 L 467 363 L 466 362 L 467 361 L 468 361 L 469 362 L 470 362 L 471 363 L 472 363 L 473 363 L 474 363 L 475 362 L 474 362 L 473 362 L 472 361 L 471 361 L 470 360 L 469 360 L 468 359 L 467 358 L 466 358 L 465 357 L 464 356 L 463 355 L 462 355 L 462 356 L 461 357 L 460 356 L 460 355 L 460 354 L 460 353 L 460 352 L 460 351 L 460 350 L 460 349 L 461 348 L 461 347 L 461 346 L 462 345 L 462 344 L 463 343 L 463 342 L 463 341 L 464 340 L 464 339 L 465 338 L 465 337 L 466 336 L 466 335 L 466 334 L 467 333 L 467 332 L 467 331 L 467 330 L 468 329 L 468 328 L 468 327 L 468 326 L 468 325 L 468 324 L 468 323 L 468 322 L 468 321 L 468 320 L 468 319 L 468 318 L 467 317 L 467 316 L 467 315 L 467 314 L 466 313 L 466 312 L 466 311 L 465 310 L 465 309 L 464 308 L 464 307 L 463 306 L 463 305 L 462 304 L 462 303 L 461 302 L 461 301 L 460 300 L 460 299 L 459 298 L 458 297 L 458 296 L 457 295 L 456 294 L 456 293 L 455 292 L 454 291 L 454 290 L 453 289 L 452 288 L 451 287 L 450 286 L 449 285 L 448 284 L 447 284 L 446 283 L 445 283 L 444 282 L 443 282 L 442 281 L 441 281 L 440 281 L 439 280 L 438 280 L 437 280 L 436 279 L 435 279 L 434 278 L 433 278 L 432 278 L 431 277 L 430 277 L 429 277 L 428 276 L 427 276 L 426 275 L 425 275 L 424 275 L 423 275 L 422 275 L 421 275 L 420 275 L 419 275 L 418 275 L 417 275 L 416 275 L 415 276 L 414 276 L 413 277 L 412 278 L 412 279 L 411 280 L 410 281 L 409 282 L 408 283 L 407 283 L 406 282 L 406 281 L 406 280 L 406 279 L 406 278 L 406 277 L 406 276 L 406 275 L 406 274 L 406 273 L 406 272 L 406 271 L 406 270 L 406 269 L 406 268 L 406 267 L 406 266 L 406 265 L 406 264 L 406 263 L 406 262 L 407 261 L 407 260 L 407 259 L 407 258 L 407 257 L 408 256 L 408 255 L 408 254 L 408 253 L 409 252 L 409 251 L 409 250 L 410 249 L 410 248 L 411 247 L 411 246 L 412 245 L 412 244 L 413 243 L 413 242 L 414 241 L 414 240 L 415 239 L 416 238 L 417 237 L 417 236 L 418 235 L 419 234 L 420 233 L 421 232 L 422 231 L 423 231 L 424 230 L 425 229 L 426 228 Z M 488 399 L 487 400 L 486 400 L 485 400 L 484 400 L 483 400 L 482 401 L 481 401 L 480 401 L 479 401 L 478 401 L 477 401 L 476 401 L 475 401 L 474 401 L 473 401 L 472 400 L 471 400 L 470 400 L 469 400 L 469 401 L 470 401 L 471 401 L 472 402 L 473 402 L 474 402 L 475 402 L 476 402 L 477 402 L 478 402 L 479 402 L 480 402 L 481 402 L 482 402 L 483 402 L 484 401 L 485 401 L 486 401 L 487 401 L 488 401 L 489 400 L 490 400 L 491 399 L 490 399 L 489 399 Z M 480 373 L 479 374 L 478 374 L 477 375 L 476 375 L 475 375 L 474 375 L 473 375 L 472 374 L 471 374 L 470 374 L 469 374 L 468 374 L 467 374 L 466 374 L 465 374 L 464 374 L 463 374 L 462 374 L 461 375 L 460 375 L 459 375 L 458 376 L 457 376 L 456 376 L 455 376 L 454 377 L 453 377 L 452 377 L 451 378 L 450 378 L 449 378 L 449 379 L 450 379 L 451 380 L 452 381 L 453 381 L 454 381 L 455 381 L 456 382 L 457 383 L 457 384 L 458 385 L 459 386 L 459 387 L 460 388 L 461 389 L 461 390 L 462 391 L 463 392 L 464 393 L 465 394 L 466 395 L 467 396 L 468 396 L 469 397 L 470 397 L 471 398 L 472 398 L 473 398 L 474 398 L 475 398 L 476 399 L 477 399 L 478 399 L 479 399 L 480 399 L 481 399 L 482 398 L 483 398 L 484 398 L 485 398 L 486 397 L 487 397 L 488 397 L 489 396 L 490 396 L 491 395 L 492 394 L 493 394 L 494 393 L 495 392 L 496 391 L 497 390 L 498 389 L 499 388 L 500 387 L 501 386 L 501 385 L 502 384 L 503 383 L 504 382 L 505 381 L 506 380 L 507 379 L 508 379 L 509 378 L 510 378 L 511 377 L 512 377 L 513 376 L 512 376 L 511 376 L 510 376 L 509 377 L 508 377 L 507 377 L 506 377 L 505 377 L 504 377 L 503 377 L 502 376 L 501 376 L 500 376 L 499 376 L 498 376 L 497 375 L 496 375 L 495 375 L 494 374 L 493 374 L 492 374 L 491 374 L 490 373 L 489 373 L 488 373 L 487 373 L 486 373 L 485 373 L 484 373 L 483 373 L 482 373 L 481 373 Z M 493 385 L 494 384 L 495 384 L 496 385 L 495 386 L 494 387 L 493 388 L 492 389 L 491 389 L 490 390 L 489 391 L 488 391 L 487 392 L 486 392 L 485 392 L 484 392 L 483 393 L 482 393 L 481 393 L 480 393 L 479 393 L 478 393 L 477 393 L 476 393 L 475 393 L 474 393 L 473 393 L 472 392 L 471 392 L 470 391 L 469 391 L 468 390 L 467 389 L 467 388 L 468 387 L 469 387 L 470 387 L 471 387 L 472 387 L 473 387 L 474 387 L 475 387 L 476 387 L 477 387 L 478 387 L 479 387 L 480 387 L 481 387 L 482 387 L 483 387 L 484 386 L 485 386 L 486 386 L 487 386 L 488 385 L 489 385 L 490 385 L 491 385 L 492 385 Z M 472 381 L 473 380 L 474 380 L 475 380 L 476 380 L 477 380 L 478 380 L 479 380 L 480 380 L 481 380 L 482 380 L 483 380 L 484 380 L 485 380 L 486 380 L 487 380 L 488 380 L 489 380 L 490 381 L 489 382 L 488 383 L 487 383 L 486 383 L 485 384 L 484 384 L 483 384 L 482 384 L 481 385 L 480 385 L 479 385 L 478 385 L 477 385 L 476 385 L 475 385 L 474 385 L 473 385 L 472 385 L 471 385 L 470 385 L 469 384 L 468 384 L 467 384 L 466 383 L 465 382 L 466 381 L 467 381 L 468 381 L 469 381 L 470 381 L 471 381 Z M 492 357 L 492 358 L 492 359 L 493 358 L 493 357 Z M 482 356 L 481 357 L 480 357 L 480 358 L 480 359 L 480 360 L 481 360 L 482 360 L 483 360 L 484 360 L 485 360 L 486 360 L 487 359 L 488 358 L 488 357 L 487 356 L 486 356 L 485 356 L 484 356 L 483 356 Z M 516 290 L 515 291 L 514 291 L 513 291 L 512 291 L 511 292 L 510 292 L 509 292 L 508 293 L 507 293 L 506 294 L 505 295 L 504 295 L 503 296 L 502 297 L 501 298 L 500 299 L 500 300 L 501 299 L 502 298 L 503 297 L 504 297 L 505 296 L 506 295 L 507 295 L 508 294 L 509 294 L 510 293 L 511 293 L 512 293 L 513 293 L 514 293 L 515 293 L 516 294 L 515 295 L 514 295 L 513 295 L 512 295 L 511 296 L 510 296 L 509 296 L 508 297 L 507 297 L 506 298 L 505 299 L 504 300 L 503 301 L 502 302 L 501 303 L 501 304 L 500 305 L 499 306 L 499 307 L 498 308 L 498 309 L 498 310 L 497 311 L 496 312 L 495 313 L 495 314 L 496 315 L 497 315 L 498 315 L 499 314 L 500 314 L 501 314 L 502 314 L 503 314 L 504 314 L 505 315 L 506 315 L 507 315 L 508 316 L 509 316 L 510 316 L 511 317 L 512 317 L 513 317 L 514 317 L 515 317 L 516 318 L 517 317 L 518 317 L 519 317 L 520 318 L 521 318 L 522 317 L 523 316 L 524 316 L 525 317 L 526 316 L 527 315 L 528 315 L 529 316 L 530 316 L 531 315 L 532 314 L 533 313 L 534 312 L 534 311 L 535 310 L 536 310 L 537 309 L 537 308 L 537 307 L 538 306 L 539 305 L 540 304 L 541 303 L 542 302 L 543 301 L 544 300 L 545 299 L 546 298 L 547 297 L 548 296 L 549 295 L 549 294 L 548 294 L 547 294 L 546 295 L 545 296 L 544 296 L 543 295 L 543 294 L 542 294 L 541 294 L 540 294 L 539 294 L 538 294 L 537 294 L 536 293 L 535 293 L 534 293 L 533 292 L 532 292 L 531 292 L 530 292 L 529 291 L 528 291 L 527 290 L 526 290 L 525 290 L 524 290 L 523 290 L 522 290 L 521 290 L 520 290 L 519 290 L 518 290 L 517 290 Z M 511 308 L 512 307 L 513 308 L 514 309 L 515 310 L 516 310 L 517 310 L 518 310 L 519 309 L 520 309 L 521 309 L 522 308 L 523 308 L 524 307 L 525 307 L 526 307 L 527 308 L 527 309 L 527 310 L 526 311 L 525 312 L 524 313 L 523 313 L 522 314 L 521 314 L 520 314 L 519 315 L 518 315 L 517 315 L 516 315 L 515 314 L 514 314 L 513 313 L 512 312 L 512 311 L 512 310 L 511 309 Z M 505 306 L 506 305 L 507 305 L 508 305 L 509 306 L 509 307 L 509 308 L 509 309 L 510 310 L 510 311 L 511 312 L 510 313 L 509 314 L 508 314 L 507 314 L 506 314 L 505 313 L 504 313 L 503 313 L 502 312 L 501 312 L 500 311 L 500 310 L 501 309 L 502 308 L 503 307 L 504 307 Z M 511 304 L 512 303 L 513 303 L 514 303 L 515 304 L 515 305 L 514 306 L 513 306 L 512 306 L 511 305 Z M 530 303 L 531 302 L 532 302 L 533 302 L 534 303 L 535 304 L 534 305 L 534 306 L 533 307 L 532 308 L 531 309 L 530 308 L 530 307 L 530 306 L 530 305 L 530 304 Z M 523 303 L 524 302 L 525 302 L 526 302 L 527 302 L 528 303 L 527 304 L 526 305 L 525 306 L 524 305 L 523 304 Z M 521 271 L 520 272 L 519 272 L 518 272 L 517 273 L 516 273 L 515 273 L 514 274 L 513 274 L 512 275 L 511 275 L 510 275 L 509 276 L 508 276 L 507 277 L 506 277 L 505 277 L 504 278 L 503 279 L 502 279 L 501 280 L 500 280 L 499 280 L 498 281 L 497 282 L 496 282 L 495 283 L 494 283 L 493 284 L 492 285 L 491 286 L 491 287 L 490 288 L 490 289 L 490 290 L 490 291 L 490 292 L 490 293 L 491 294 L 491 295 L 492 296 L 493 296 L 494 295 L 495 295 L 496 294 L 497 294 L 498 293 L 499 293 L 500 292 L 501 291 L 502 291 L 503 290 L 504 289 L 505 289 L 506 288 L 507 287 L 508 287 L 509 286 L 510 285 L 511 285 L 512 284 L 513 283 L 514 283 L 515 282 L 516 281 L 517 281 L 518 280 L 519 280 L 520 279 L 521 278 L 522 278 L 523 277 L 524 277 L 525 277 L 526 276 L 527 276 L 528 276 L 529 276 L 530 276 L 531 276 L 532 276 L 533 276 L 534 276 L 535 277 L 536 277 L 537 277 L 538 278 L 539 278 L 540 279 L 541 279 L 542 280 L 543 280 L 544 280 L 545 281 L 546 281 L 547 282 L 548 282 L 549 281 L 548 280 L 547 280 L 546 279 L 545 278 L 544 277 L 543 277 L 542 276 L 541 276 L 540 275 L 539 275 L 538 274 L 537 274 L 536 273 L 535 273 L 534 273 L 533 272 L 532 272 L 531 272 L 530 271 L 529 271 L 528 271 L 527 271 L 526 271 L 525 271 L 524 271 L 523 271 L 522 271 Z M 433 220 L 434 219 L 435 219 L 436 219 L 437 219 L 438 220 L 439 220 L 440 220 L 441 221 L 442 221 L 443 222 L 444 223 L 445 223 L 446 224 L 447 225 L 448 225 L 449 226 L 450 226 L 451 227 L 452 228 L 453 228 L 454 229 L 455 229 L 456 230 L 457 230 L 458 231 L 459 231 L 460 232 L 461 233 L 460 234 L 459 234 L 458 233 L 457 233 L 456 233 L 455 232 L 454 232 L 453 231 L 452 231 L 451 231 L 450 230 L 449 230 L 448 229 L 447 229 L 446 228 L 445 227 L 444 227 L 443 226 L 442 226 L 441 225 L 440 225 L 439 224 L 438 223 L 437 223 L 436 222 L 435 221 L 434 221 Z M 405 217 L 406 216 L 407 216 L 408 217 L 407 218 L 406 219 L 405 220 L 405 221 L 406 220 L 407 220 L 408 219 L 409 219 L 410 218 L 411 218 L 412 217 L 413 217 L 414 216 L 415 216 L 416 216 L 417 217 L 416 218 L 416 219 L 417 219 L 418 218 L 419 218 L 420 219 L 419 220 L 418 221 L 417 221 L 416 221 L 415 222 L 414 222 L 413 223 L 412 223 L 411 224 L 410 225 L 409 225 L 408 226 L 407 227 L 406 228 L 405 228 L 404 229 L 403 230 L 403 231 L 402 232 L 401 233 L 400 234 L 400 235 L 399 236 L 399 237 L 398 238 L 397 239 L 397 240 L 396 241 L 396 242 L 395 243 L 395 244 L 394 245 L 394 246 L 394 247 L 393 248 L 393 249 L 393 250 L 392 251 L 392 252 L 392 253 L 392 254 L 391 255 L 391 256 L 391 257 L 391 258 L 391 259 L 391 260 L 391 261 L 390 262 L 390 263 L 390 264 L 390 265 L 390 266 L 391 267 L 391 268 L 391 269 L 391 270 L 391 271 L 391 272 L 391 273 L 391 274 L 392 275 L 392 276 L 392 277 L 392 278 L 393 279 L 393 280 L 393 281 L 394 282 L 394 283 L 394 284 L 394 285 L 393 286 L 392 285 L 392 284 L 391 283 L 391 282 L 391 281 L 390 280 L 390 279 L 389 278 L 389 277 L 389 276 L 388 275 L 388 274 L 388 273 L 388 272 L 388 271 L 387 270 L 387 269 L 387 268 L 387 267 L 387 266 L 387 265 L 387 264 L 387 263 L 387 262 L 386 261 L 386 260 L 386 259 L 386 258 L 386 257 L 386 256 L 386 255 L 386 254 L 387 253 L 387 252 L 387 251 L 387 250 L 387 249 L 387 248 L 387 247 L 388 246 L 388 245 L 388 244 L 388 243 L 389 242 L 389 241 L 389 240 L 390 239 L 390 238 L 390 237 L 391 236 L 391 235 L 392 234 L 392 233 L 393 232 L 393 231 L 394 230 L 394 229 L 395 228 L 396 227 L 396 226 L 397 225 L 398 224 L 399 223 L 400 222 L 400 221 L 401 220 L 402 220 L 403 219 L 404 218 Z M 407 216 L 408 215 L 409 216 L 408 217 Z M 408 215 L 409 214 L 410 215 L 409 216 Z M 410 214 L 411 213 L 412 214 L 411 215 Z M 511 203 L 512 202 L 513 202 L 514 202 L 515 202 L 516 202 L 517 202 L 518 202 L 519 202 L 520 202 L 521 202 L 522 202 L 523 202 L 524 203 L 525 203 L 526 203 L 527 203 L 528 204 L 529 204 L 530 204 L 531 205 L 532 205 L 533 206 L 534 206 L 535 207 L 536 207 L 537 208 L 538 209 L 539 210 L 540 211 L 541 212 L 542 213 L 543 214 L 544 215 L 545 216 L 546 216 L 547 216 L 548 217 L 549 217 L 550 217 L 551 217 L 552 217 L 553 217 L 554 218 L 555 218 L 556 218 L 557 218 L 558 219 L 559 219 L 560 219 L 561 220 L 562 220 L 563 220 L 564 221 L 565 221 L 566 222 L 567 222 L 568 223 L 569 223 L 570 224 L 571 224 L 572 225 L 573 226 L 574 226 L 575 227 L 576 228 L 577 229 L 578 229 L 579 230 L 580 231 L 581 232 L 582 233 L 583 234 L 584 235 L 585 236 L 586 237 L 586 238 L 587 239 L 588 240 L 589 241 L 589 242 L 590 243 L 590 244 L 590 245 L 589 246 L 588 247 L 587 247 L 586 247 L 585 247 L 584 247 L 583 247 L 582 247 L 581 246 L 582 245 L 583 244 L 584 243 L 583 242 L 583 241 L 583 240 L 582 239 L 581 238 L 580 237 L 579 236 L 578 235 L 577 234 L 576 233 L 575 232 L 574 231 L 573 231 L 572 230 L 571 229 L 570 229 L 569 228 L 568 228 L 567 227 L 566 227 L 565 227 L 564 226 L 563 226 L 562 226 L 561 225 L 560 225 L 559 225 L 558 225 L 557 225 L 556 224 L 555 224 L 554 224 L 553 224 L 552 224 L 551 224 L 550 224 L 549 224 L 548 224 L 548 225 L 549 225 L 550 225 L 551 225 L 552 226 L 553 226 L 554 226 L 555 226 L 556 227 L 557 227 L 558 227 L 559 228 L 560 228 L 561 229 L 560 230 L 559 230 L 558 230 L 557 230 L 556 230 L 555 230 L 554 230 L 553 230 L 552 230 L 551 230 L 550 230 L 549 230 L 548 229 L 547 229 L 546 229 L 545 229 L 544 229 L 543 229 L 542 229 L 541 229 L 540 229 L 539 229 L 538 229 L 537 229 L 536 229 L 535 229 L 534 229 L 533 229 L 532 229 L 531 229 L 530 229 L 529 230 L 528 230 L 527 230 L 527 231 L 528 232 L 527 233 L 526 233 L 525 233 L 524 233 L 523 233 L 522 232 L 521 232 L 520 232 L 519 232 L 518 232 L 517 232 L 517 233 L 518 233 L 519 234 L 520 234 L 521 234 L 522 235 L 523 235 L 524 235 L 525 236 L 526 236 L 527 236 L 528 237 L 529 237 L 530 237 L 531 237 L 532 238 L 533 238 L 534 239 L 535 239 L 536 239 L 537 239 L 538 240 L 539 240 L 540 240 L 541 241 L 542 241 L 543 241 L 544 241 L 545 242 L 546 242 L 547 242 L 548 242 L 549 243 L 550 243 L 551 243 L 552 243 L 553 244 L 554 244 L 555 244 L 556 244 L 557 245 L 557 246 L 556 247 L 555 247 L 554 247 L 553 247 L 552 246 L 551 246 L 550 246 L 549 246 L 548 246 L 547 246 L 546 246 L 545 246 L 544 245 L 543 245 L 542 245 L 541 244 L 540 244 L 539 244 L 538 243 L 537 243 L 536 243 L 535 243 L 534 242 L 533 242 L 532 241 L 531 241 L 530 241 L 529 241 L 528 240 L 527 240 L 526 239 L 525 239 L 524 238 L 523 238 L 522 238 L 521 237 L 520 237 L 519 236 L 518 236 L 517 236 L 516 235 L 515 235 L 514 235 L 513 235 L 512 234 L 511 234 L 510 234 L 509 233 L 508 233 L 507 233 L 506 233 L 505 233 L 504 233 L 503 233 L 502 233 L 501 233 L 500 233 L 499 233 L 498 233 L 497 233 L 496 233 L 495 233 L 494 233 L 493 233 L 492 233 L 491 232 L 492 231 L 493 231 L 494 231 L 495 231 L 496 230 L 497 230 L 498 230 L 499 229 L 500 229 L 501 229 L 502 229 L 503 229 L 504 229 L 505 228 L 506 228 L 507 228 L 508 228 L 509 227 L 510 227 L 511 227 L 512 227 L 513 226 L 514 226 L 515 226 L 516 226 L 517 225 L 518 225 L 519 225 L 520 225 L 521 224 L 522 224 L 523 224 L 524 223 L 525 223 L 526 223 L 527 223 L 528 222 L 529 222 L 530 222 L 531 222 L 532 221 L 533 221 L 534 221 L 535 220 L 536 220 L 537 220 L 538 219 L 538 218 L 537 217 L 536 217 L 535 217 L 534 217 L 533 217 L 532 217 L 531 217 L 530 217 L 529 217 L 528 217 L 527 217 L 526 217 L 525 217 L 524 217 L 523 217 L 522 217 L 521 217 L 520 217 L 519 217 L 518 218 L 517 218 L 516 218 L 515 218 L 514 218 L 513 219 L 512 219 L 511 219 L 510 219 L 509 219 L 508 220 L 507 220 L 506 220 L 505 220 L 504 220 L 503 220 L 502 221 L 501 221 L 500 221 L 499 221 L 498 221 L 497 221 L 496 222 L 495 222 L 494 222 L 493 222 L 492 222 L 491 222 L 490 222 L 489 222 L 488 222 L 487 222 L 486 222 L 485 222 L 484 222 L 483 222 L 482 222 L 481 222 L 480 221 L 479 221 L 478 221 L 477 221 L 476 221 L 475 221 L 474 220 L 473 220 L 472 220 L 471 220 L 470 219 L 469 219 L 468 219 L 467 219 L 466 218 L 465 218 L 464 217 L 463 217 L 462 217 L 461 216 L 460 215 L 459 215 L 458 214 L 459 213 L 460 213 L 461 213 L 462 213 L 463 213 L 464 212 L 465 212 L 466 212 L 467 212 L 468 212 L 469 212 L 470 212 L 471 212 L 472 212 L 473 211 L 474 211 L 475 211 L 476 211 L 477 211 L 478 211 L 479 211 L 480 210 L 481 210 L 482 210 L 483 210 L 484 209 L 485 209 L 486 209 L 487 209 L 488 208 L 489 208 L 490 208 L 491 208 L 492 207 L 493 207 L 494 207 L 495 206 L 496 206 L 497 206 L 498 206 L 499 205 L 500 205 L 501 205 L 502 205 L 503 204 L 504 204 L 505 204 L 506 204 L 507 203 L 508 203 L 509 203 L 510 203 Z M 471 214 L 471 215 L 472 215 L 473 214 L 472 214 Z M 477 213 L 477 214 L 478 214 L 479 213 L 478 213 Z M 506 206 L 505 207 L 504 207 L 503 207 L 502 207 L 501 207 L 500 208 L 499 208 L 498 208 L 497 209 L 496 209 L 495 209 L 494 209 L 493 210 L 492 210 L 491 210 L 490 211 L 489 211 L 488 211 L 487 211 L 486 211 L 485 212 L 484 212 L 483 212 L 482 212 L 482 213 L 483 213 L 484 213 L 485 213 L 486 212 L 487 212 L 488 212 L 489 212 L 490 211 L 491 211 L 492 211 L 493 211 L 494 211 L 495 210 L 496 210 L 497 210 L 498 210 L 499 210 L 500 209 L 501 209 L 502 209 L 503 209 L 504 209 L 505 208 L 506 208 L 507 208 L 508 208 L 509 208 L 510 208 L 511 207 L 512 207 L 513 207 L 514 207 L 515 207 L 516 207 L 517 207 L 518 207 L 519 207 L 520 207 L 521 207 L 522 208 L 523 208 L 524 208 L 525 208 L 526 208 L 527 208 L 528 209 L 529 209 L 530 209 L 531 210 L 532 210 L 533 211 L 534 211 L 535 212 L 536 213 L 537 213 L 538 214 L 539 215 L 540 214 L 539 213 L 538 212 L 537 211 L 536 210 L 535 210 L 534 209 L 533 209 L 532 208 L 531 208 L 530 207 L 529 207 L 528 207 L 527 206 L 526 206 L 525 206 L 524 206 L 523 206 L 522 206 L 521 206 L 520 206 L 519 206 L 518 206 L 517 206 L 516 206 L 515 206 L 514 206 L 513 206 L 512 206 L 511 206 L 510 206 L 509 206 L 508 206 L 507 206 Z M 474 144 L 475 143 L 476 143 L 477 143 L 478 143 L 479 143 L 480 143 L 481 143 L 482 143 L 483 143 L 484 143 L 485 143 L 486 143 L 487 143 L 488 143 L 489 143 L 490 143 L 491 143 L 492 143 L 493 143 L 494 144 L 495 144 L 496 144 L 497 144 L 498 144 L 499 144 L 500 144 L 501 144 L 502 145 L 503 145 L 504 145 L 505 145 L 506 145 L 507 145 L 508 145 L 509 146 L 510 146 L 511 146 L 512 146 L 513 146 L 514 146 L 515 147 L 516 147 L 517 147 L 518 147 L 519 148 L 520 148 L 521 148 L 522 148 L 523 149 L 524 149 L 525 149 L 526 150 L 527 150 L 528 150 L 529 151 L 530 151 L 531 151 L 532 152 L 533 152 L 534 152 L 535 153 L 536 153 L 537 153 L 538 154 L 539 154 L 540 155 L 541 155 L 542 155 L 543 156 L 544 156 L 545 156 L 546 157 L 547 157 L 548 158 L 549 158 L 550 158 L 551 159 L 552 159 L 553 160 L 554 161 L 555 161 L 556 161 L 557 162 L 558 162 L 559 163 L 560 163 L 561 164 L 562 164 L 563 165 L 564 166 L 565 166 L 566 167 L 567 167 L 568 168 L 569 168 L 570 169 L 571 169 L 572 170 L 573 171 L 574 171 L 575 172 L 576 173 L 577 173 L 578 174 L 579 175 L 580 175 L 581 176 L 582 177 L 583 178 L 584 178 L 585 179 L 586 180 L 587 181 L 588 181 L 589 182 L 590 183 L 591 184 L 592 185 L 593 186 L 594 187 L 595 188 L 595 189 L 596 190 L 597 191 L 598 192 L 599 193 L 599 194 L 599 195 L 599 196 L 599 197 L 599 198 L 599 199 L 598 200 L 598 201 L 598 202 L 598 203 L 598 204 L 598 205 L 597 206 L 597 207 L 597 208 L 597 209 L 597 210 L 597 211 L 597 212 L 597 213 L 596 214 L 596 215 L 596 216 L 596 217 L 596 218 L 596 219 L 596 220 L 595 221 L 595 222 L 595 223 L 595 224 L 595 225 L 595 226 L 595 227 L 595 228 L 594 229 L 594 230 L 594 231 L 594 232 L 594 233 L 594 234 L 594 235 L 593 236 L 592 237 L 591 237 L 590 236 L 589 235 L 588 234 L 587 233 L 586 232 L 585 231 L 584 230 L 583 229 L 582 229 L 581 228 L 580 227 L 579 226 L 578 225 L 577 225 L 576 224 L 575 223 L 574 222 L 573 222 L 572 221 L 571 221 L 570 220 L 569 219 L 568 219 L 567 218 L 566 218 L 565 217 L 564 216 L 563 216 L 562 215 L 561 215 L 560 214 L 559 214 L 558 213 L 557 212 L 556 212 L 555 211 L 554 211 L 553 210 L 552 210 L 551 209 L 550 209 L 549 208 L 548 208 L 547 207 L 546 207 L 545 206 L 544 206 L 543 205 L 542 205 L 541 204 L 540 204 L 539 203 L 538 203 L 537 203 L 536 202 L 535 202 L 534 201 L 533 201 L 532 201 L 531 200 L 530 200 L 529 200 L 528 199 L 527 199 L 526 199 L 525 198 L 524 198 L 523 198 L 522 197 L 521 197 L 520 197 L 519 196 L 518 196 L 517 196 L 516 196 L 515 196 L 514 195 L 513 195 L 512 195 L 511 195 L 510 195 L 509 194 L 508 194 L 507 194 L 506 194 L 505 194 L 504 194 L 503 194 L 502 194 L 501 194 L 500 194 L 499 194 L 498 193 L 497 193 L 496 193 L 495 193 L 494 193 L 493 193 L 492 193 L 491 193 L 490 193 L 489 193 L 488 193 L 487 193 L 486 193 L 485 193 L 484 193 L 483 193 L 482 193 L 481 193 L 480 193 L 479 193 L 478 193 L 477 193 L 476 193 L 475 193 L 474 193 L 473 193 L 472 193 L 471 193 L 470 194 L 469 194 L 468 194 L 467 194 L 466 194 L 465 194 L 464 194 L 463 194 L 462 194 L 461 194 L 460 194 L 459 194 L 458 195 L 457 195 L 456 195 L 455 195 L 454 195 L 453 195 L 452 196 L 451 196 L 450 196 L 449 196 L 448 196 L 447 196 L 446 197 L 445 197 L 444 197 L 443 198 L 442 198 L 441 198 L 440 198 L 439 199 L 438 199 L 437 199 L 436 199 L 435 200 L 434 200 L 433 200 L 432 201 L 431 201 L 430 201 L 429 202 L 428 202 L 427 202 L 426 203 L 425 203 L 424 204 L 423 204 L 422 204 L 421 205 L 420 205 L 419 205 L 418 206 L 417 205 L 417 204 L 417 203 L 418 202 L 418 201 L 418 200 L 419 199 L 419 198 L 419 197 L 420 196 L 420 195 L 420 194 L 421 193 L 421 192 L 421 191 L 422 190 L 422 189 L 422 188 L 423 187 L 423 186 L 423 185 L 424 184 L 424 183 L 424 182 L 424 181 L 425 180 L 425 179 L 425 178 L 426 177 L 426 176 L 426 175 L 427 174 L 427 173 L 427 172 L 428 171 L 428 170 L 428 169 L 428 168 L 429 167 L 429 166 L 429 165 L 430 164 L 430 163 L 430 162 L 431 161 L 431 160 L 431 159 L 432 158 L 432 157 L 433 156 L 434 155 L 435 154 L 436 154 L 437 153 L 438 153 L 439 152 L 440 152 L 441 151 L 442 151 L 443 150 L 444 150 L 445 150 L 446 149 L 447 149 L 448 148 L 449 148 L 450 148 L 451 148 L 452 147 L 453 147 L 454 147 L 455 146 L 456 146 L 457 146 L 458 146 L 459 146 L 460 146 L 461 145 L 462 145 L 463 145 L 464 145 L 465 145 L 466 145 L 467 144 L 468 144 L 469 144 L 470 144 L 471 144 L 472 144 L 473 144 Z M 520 72 L 521 71 L 522 71 L 523 71 L 524 71 L 525 72 L 526 72 L 527 72 L 528 73 L 529 73 L 530 73 L 531 73 L 532 74 L 533 74 L 534 74 L 535 74 L 536 75 L 537 75 L 538 75 L 539 75 L 540 76 L 541 76 L 542 76 L 543 76 L 544 76 L 545 76 L 546 77 L 547 77 L 548 77 L 549 77 L 550 78 L 551 78 L 552 78 L 553 78 L 554 78 L 555 79 L 556 79 L 557 79 L 558 79 L 559 80 L 560 80 L 561 80 L 562 81 L 563 81 L 564 81 L 565 82 L 566 82 L 567 82 L 568 83 L 569 83 L 570 83 L 571 84 L 572 84 L 573 84 L 574 85 L 575 85 L 576 86 L 577 86 L 578 87 L 579 87 L 580 88 L 581 88 L 582 89 L 583 89 L 584 90 L 585 90 L 586 91 L 587 92 L 588 92 L 589 93 L 590 94 L 591 94 L 592 95 L 593 96 L 594 97 L 595 98 L 596 98 L 597 99 L 598 100 L 599 101 L 600 102 L 601 103 L 602 104 L 603 105 L 604 106 L 604 107 L 605 108 L 605 109 L 606 110 L 607 111 L 607 112 L 608 113 L 608 114 L 609 115 L 609 116 L 610 117 L 610 118 L 610 119 L 610 120 L 611 121 L 611 122 L 611 123 L 611 124 L 611 125 L 612 124 L 612 123 L 613 122 L 614 121 L 615 121 L 616 122 L 617 123 L 618 124 L 619 124 L 620 125 L 621 126 L 622 127 L 623 128 L 624 129 L 625 129 L 626 130 L 627 131 L 628 132 L 629 133 L 630 133 L 631 134 L 632 135 L 633 136 L 634 137 L 635 137 L 636 138 L 637 139 L 638 140 L 639 141 L 640 141 L 641 142 L 642 143 L 643 144 L 644 144 L 645 145 L 646 146 L 647 147 L 648 148 L 649 149 L 650 149 L 651 150 L 652 151 L 653 152 L 654 153 L 655 153 L 656 154 L 657 155 L 658 156 L 659 157 L 660 158 L 661 159 L 662 160 L 663 161 L 664 162 L 665 163 L 666 164 L 667 165 L 668 166 L 668 167 L 669 168 L 670 169 L 670 170 L 671 171 L 672 172 L 672 173 L 673 174 L 673 175 L 673 176 L 674 177 L 674 178 L 674 179 L 674 180 L 675 181 L 675 182 L 675 183 L 675 184 L 675 185 L 675 186 L 675 187 L 675 188 L 675 189 L 675 190 L 675 191 L 675 192 L 675 193 L 676 194 L 676 195 L 676 196 L 676 197 L 676 198 L 676 199 L 676 200 L 676 201 L 676 202 L 676 203 L 676 204 L 676 205 L 676 206 L 676 207 L 676 208 L 676 209 L 676 210 L 676 211 L 676 212 L 676 213 L 676 214 L 676 215 L 676 216 L 676 217 L 676 218 L 676 219 L 676 220 L 676 221 L 676 222 L 676 223 L 676 224 L 676 225 L 676 226 L 676 227 L 676 228 L 675 229 L 675 230 L 675 231 L 675 232 L 675 233 L 674 234 L 674 235 L 674 236 L 673 237 L 672 238 L 671 239 L 670 238 L 670 237 L 670 236 L 670 235 L 671 234 L 671 233 L 671 232 L 671 231 L 671 230 L 671 229 L 671 228 L 671 227 L 671 226 L 671 225 L 671 224 L 671 223 L 671 222 L 671 221 L 671 220 L 671 219 L 671 218 L 671 217 L 670 216 L 670 215 L 670 214 L 670 213 L 670 212 L 669 212 L 668 213 L 667 214 L 667 215 L 666 216 L 665 217 L 664 218 L 663 219 L 662 220 L 661 220 L 660 221 L 659 221 L 658 222 L 657 222 L 656 223 L 655 223 L 654 223 L 653 223 L 652 223 L 651 224 L 650 224 L 649 224 L 648 224 L 647 224 L 646 224 L 645 224 L 644 224 L 643 224 L 642 224 L 641 224 L 640 223 L 641 222 L 642 222 L 643 221 L 644 221 L 645 220 L 646 220 L 647 219 L 648 219 L 649 218 L 650 218 L 651 217 L 652 216 L 653 215 L 654 214 L 655 214 L 656 213 L 656 212 L 657 211 L 658 210 L 659 209 L 659 208 L 660 207 L 660 206 L 660 205 L 661 204 L 661 203 L 661 202 L 661 201 L 661 200 L 662 199 L 662 198 L 662 197 L 661 196 L 661 195 L 661 194 L 661 193 L 661 192 L 660 191 L 660 190 L 660 189 L 659 188 L 659 187 L 658 186 L 658 185 L 657 184 L 657 183 L 656 182 L 655 181 L 654 180 L 654 179 L 653 178 L 652 177 L 651 176 L 650 175 L 649 174 L 648 173 L 647 172 L 646 172 L 645 171 L 644 170 L 643 170 L 642 169 L 641 168 L 640 168 L 639 167 L 638 166 L 637 166 L 636 165 L 635 165 L 634 164 L 633 164 L 632 163 L 631 163 L 630 163 L 629 163 L 628 162 L 627 162 L 627 163 L 628 162 L 629 163 L 629 164 L 630 165 L 631 165 L 632 166 L 633 167 L 634 168 L 635 168 L 636 169 L 637 170 L 638 171 L 639 172 L 640 173 L 641 174 L 642 175 L 643 176 L 644 177 L 645 178 L 646 179 L 646 180 L 647 181 L 648 182 L 648 183 L 649 184 L 649 185 L 650 186 L 650 187 L 651 188 L 651 189 L 652 190 L 652 191 L 652 192 L 652 193 L 652 194 L 652 195 L 653 196 L 652 197 L 652 198 L 652 199 L 652 200 L 651 201 L 651 202 L 650 203 L 649 204 L 648 205 L 647 206 L 646 207 L 645 208 L 644 209 L 643 210 L 642 210 L 641 211 L 640 212 L 639 212 L 638 212 L 637 213 L 636 213 L 635 214 L 634 214 L 633 214 L 632 214 L 631 215 L 630 215 L 629 215 L 628 215 L 627 215 L 626 214 L 626 213 L 626 212 L 625 211 L 625 210 L 625 209 L 624 208 L 624 207 L 624 206 L 623 205 L 623 204 L 622 203 L 622 202 L 621 201 L 621 200 L 620 199 L 620 198 L 619 197 L 619 196 L 618 195 L 617 194 L 617 193 L 616 192 L 615 191 L 614 190 L 613 189 L 612 188 L 611 187 L 610 186 L 611 185 L 612 185 L 613 186 L 614 186 L 615 187 L 616 187 L 617 187 L 618 188 L 619 188 L 620 188 L 621 188 L 622 188 L 623 188 L 624 188 L 625 189 L 626 189 L 627 189 L 628 189 L 629 188 L 630 188 L 631 188 L 632 187 L 633 186 L 634 185 L 634 184 L 634 183 L 633 182 L 633 181 L 632 180 L 632 179 L 631 178 L 630 178 L 629 177 L 628 176 L 627 175 L 626 175 L 625 174 L 624 174 L 623 173 L 622 173 L 621 173 L 620 172 L 619 172 L 618 171 L 617 171 L 616 170 L 615 170 L 614 170 L 613 169 L 612 169 L 611 169 L 610 168 L 609 168 L 608 168 L 607 167 L 606 167 L 605 167 L 604 167 L 603 166 L 602 166 L 601 166 L 600 165 L 599 165 L 598 165 L 597 164 L 596 164 L 595 164 L 594 163 L 593 163 L 592 163 L 591 162 L 590 162 L 589 162 L 588 161 L 587 161 L 586 160 L 585 160 L 584 160 L 583 159 L 582 158 L 583 157 L 584 157 L 585 156 L 586 156 L 587 156 L 588 156 L 589 156 L 590 156 L 591 156 L 592 156 L 593 156 L 594 155 L 595 155 L 596 155 L 597 154 L 598 154 L 599 153 L 600 153 L 601 152 L 602 152 L 603 151 L 604 150 L 605 149 L 606 148 L 607 147 L 608 146 L 609 145 L 610 144 L 610 143 L 611 142 L 612 141 L 612 140 L 613 139 L 613 138 L 614 137 L 614 136 L 614 135 L 614 134 L 613 134 L 612 134 L 611 135 L 610 136 L 609 137 L 608 137 L 607 138 L 606 139 L 605 139 L 604 140 L 603 140 L 602 140 L 601 141 L 600 141 L 599 142 L 598 142 L 597 143 L 596 143 L 595 144 L 594 144 L 593 144 L 592 144 L 591 145 L 590 145 L 589 145 L 588 145 L 587 146 L 586 146 L 585 146 L 584 146 L 583 147 L 582 147 L 581 147 L 580 147 L 579 147 L 578 147 L 577 147 L 576 147 L 575 147 L 574 147 L 573 147 L 572 147 L 571 147 L 570 147 L 569 147 L 568 147 L 567 147 L 566 147 L 565 147 L 564 147 L 563 146 L 562 146 L 561 146 L 560 146 L 559 146 L 558 145 L 557 145 L 556 145 L 555 144 L 554 144 L 553 144 L 552 143 L 551 143 L 550 142 L 549 142 L 548 141 L 547 141 L 546 140 L 545 139 L 544 138 L 545 137 L 546 137 L 547 136 L 548 136 L 549 136 L 550 136 L 551 136 L 552 136 L 553 136 L 554 136 L 555 135 L 556 135 L 557 135 L 558 134 L 559 134 L 560 133 L 561 133 L 562 132 L 563 131 L 564 130 L 565 129 L 565 128 L 566 127 L 567 126 L 567 125 L 568 124 L 568 123 L 568 122 L 568 121 L 568 120 L 568 119 L 568 118 L 568 117 L 568 116 L 567 115 L 567 114 L 566 113 L 566 112 L 565 111 L 564 110 L 564 109 L 563 109 L 562 109 L 562 110 L 562 111 L 562 112 L 561 113 L 561 114 L 561 115 L 561 116 L 561 117 L 560 118 L 560 119 L 560 120 L 559 121 L 559 122 L 558 123 L 557 124 L 556 125 L 555 126 L 554 127 L 553 128 L 552 129 L 551 129 L 550 129 L 549 130 L 548 130 L 547 131 L 546 131 L 545 131 L 544 131 L 543 131 L 542 132 L 541 132 L 540 132 L 539 132 L 538 132 L 537 132 L 536 132 L 535 132 L 534 132 L 533 132 L 532 132 L 531 132 L 530 132 L 529 132 L 528 132 L 527 132 L 526 132 L 525 131 L 524 131 L 523 130 L 523 129 L 523 128 L 524 127 L 525 126 L 526 125 L 527 124 L 527 123 L 528 122 L 528 121 L 529 120 L 529 119 L 529 118 L 529 117 L 529 116 L 529 115 L 529 114 L 529 113 L 529 112 L 528 111 L 528 110 L 527 109 L 527 108 L 526 107 L 525 106 L 524 105 L 523 104 L 523 103 L 522 103 L 521 103 L 521 104 L 521 105 L 521 106 L 521 107 L 520 108 L 520 109 L 520 110 L 520 111 L 519 112 L 519 113 L 519 114 L 518 115 L 518 116 L 517 117 L 516 118 L 516 119 L 515 120 L 514 121 L 513 122 L 512 122 L 511 123 L 510 124 L 509 124 L 508 124 L 507 125 L 506 125 L 505 125 L 504 125 L 503 125 L 502 126 L 501 125 L 500 125 L 499 125 L 498 125 L 497 125 L 496 125 L 495 124 L 494 124 L 493 123 L 492 123 L 491 123 L 490 122 L 489 122 L 488 121 L 487 121 L 486 120 L 485 119 L 484 119 L 483 118 L 482 118 L 481 117 L 480 116 L 479 116 L 478 115 L 477 114 L 476 113 L 475 113 L 474 112 L 473 111 L 472 110 L 471 110 L 470 109 L 469 108 L 468 107 L 467 107 L 466 106 L 465 105 L 464 104 L 463 103 L 462 103 L 461 102 L 460 102 L 460 103 L 461 104 L 462 105 L 462 106 L 463 107 L 464 108 L 464 109 L 465 110 L 466 111 L 467 112 L 468 113 L 469 114 L 470 115 L 471 116 L 472 117 L 472 118 L 473 118 L 474 119 L 475 120 L 475 121 L 474 122 L 473 122 L 472 121 L 471 121 L 470 121 L 469 120 L 468 120 L 467 119 L 466 119 L 465 119 L 464 118 L 463 118 L 462 118 L 461 117 L 460 117 L 459 116 L 458 116 L 457 116 L 456 115 L 455 115 L 454 115 L 453 114 L 452 114 L 451 114 L 450 113 L 449 113 L 448 113 L 447 113 L 446 113 L 445 112 L 444 112 L 443 112 L 442 112 L 441 112 L 440 112 L 439 112 L 438 112 L 437 112 L 436 113 L 435 113 L 434 114 L 434 115 L 434 116 L 434 117 L 434 118 L 434 119 L 435 120 L 436 121 L 437 122 L 438 123 L 439 123 L 440 124 L 441 124 L 442 125 L 443 125 L 444 126 L 445 127 L 446 127 L 447 127 L 448 128 L 449 128 L 450 129 L 451 129 L 452 130 L 453 130 L 454 131 L 454 132 L 453 133 L 452 133 L 451 132 L 450 132 L 449 132 L 448 132 L 447 132 L 446 132 L 445 132 L 444 132 L 443 132 L 442 132 L 441 131 L 440 131 L 439 131 L 438 131 L 437 131 L 436 131 L 435 131 L 434 131 L 433 130 L 432 130 L 431 130 L 430 130 L 429 130 L 428 129 L 427 129 L 426 129 L 425 129 L 424 128 L 423 128 L 422 128 L 421 128 L 420 127 L 419 127 L 418 126 L 417 126 L 416 126 L 415 125 L 414 125 L 413 124 L 412 124 L 411 123 L 410 122 L 409 121 L 408 120 L 407 119 L 406 118 L 406 117 L 405 116 L 404 116 L 403 116 L 402 116 L 402 117 L 401 118 L 401 119 L 400 120 L 400 121 L 400 122 L 400 123 L 401 124 L 401 125 L 401 126 L 402 127 L 403 128 L 404 129 L 404 130 L 405 130 L 406 131 L 407 131 L 408 132 L 409 133 L 410 133 L 411 134 L 412 134 L 413 134 L 414 135 L 415 135 L 416 135 L 417 136 L 418 136 L 419 136 L 420 136 L 421 136 L 422 137 L 423 137 L 424 138 L 423 139 L 422 139 L 421 139 L 420 139 L 419 139 L 418 139 L 417 139 L 416 139 L 415 139 L 414 139 L 413 139 L 412 139 L 411 139 L 410 139 L 409 139 L 408 139 L 407 139 L 406 139 L 405 139 L 404 138 L 403 138 L 402 138 L 401 138 L 400 138 L 399 138 L 398 137 L 397 137 L 396 137 L 395 136 L 394 136 L 393 136 L 392 135 L 391 134 L 390 134 L 389 133 L 388 132 L 387 131 L 386 130 L 386 129 L 385 129 L 384 129 L 384 130 L 383 131 L 383 132 L 383 133 L 383 134 L 383 135 L 383 136 L 383 137 L 384 138 L 384 139 L 385 140 L 386 141 L 387 141 L 388 142 L 389 142 L 390 143 L 391 143 L 392 143 L 393 143 L 394 144 L 395 144 L 396 144 L 397 144 L 398 144 L 399 145 L 400 145 L 401 145 L 402 145 L 403 145 L 404 146 L 403 147 L 402 147 L 401 147 L 400 147 L 399 147 L 398 147 L 397 147 L 396 147 L 395 148 L 394 148 L 393 148 L 392 148 L 391 148 L 390 148 L 389 148 L 388 148 L 387 149 L 386 149 L 385 149 L 384 149 L 383 149 L 382 149 L 381 149 L 380 149 L 379 150 L 378 150 L 377 150 L 376 150 L 375 150 L 374 151 L 373 151 L 372 151 L 371 151 L 370 151 L 369 152 L 368 152 L 367 152 L 366 152 L 365 153 L 364 153 L 363 154 L 362 154 L 361 155 L 360 155 L 359 156 L 358 157 L 357 158 L 356 159 L 356 160 L 355 161 L 355 162 L 355 163 L 355 164 L 355 165 L 355 166 L 355 167 L 355 168 L 355 169 L 355 170 L 355 171 L 355 172 L 355 173 L 355 174 L 355 175 L 356 176 L 356 177 L 357 178 L 357 179 L 357 180 L 358 181 L 358 182 L 359 183 L 359 184 L 360 185 L 360 186 L 361 187 L 361 188 L 362 189 L 362 190 L 363 191 L 363 192 L 364 193 L 365 194 L 365 195 L 366 196 L 367 197 L 367 198 L 368 199 L 369 200 L 369 201 L 370 202 L 371 203 L 371 204 L 372 205 L 373 206 L 374 207 L 374 208 L 375 209 L 376 210 L 375 211 L 374 211 L 373 210 L 372 209 L 371 208 L 370 207 L 369 206 L 368 205 L 368 204 L 367 203 L 366 202 L 365 201 L 364 200 L 364 199 L 363 198 L 362 197 L 361 196 L 360 195 L 360 194 L 359 193 L 358 192 L 358 191 L 357 190 L 356 189 L 356 188 L 355 187 L 354 186 L 354 185 L 353 184 L 352 183 L 352 182 L 351 181 L 351 180 L 350 179 L 350 178 L 349 177 L 349 176 L 348 175 L 348 174 L 347 173 L 346 172 L 346 171 L 345 170 L 345 169 L 345 168 L 344 167 L 344 166 L 343 165 L 343 164 L 343 163 L 342 162 L 342 161 L 342 160 L 341 159 L 341 158 L 341 157 L 341 156 L 341 155 L 341 154 L 341 153 L 340 152 L 340 151 L 340 150 L 340 149 L 340 148 L 340 147 L 340 146 L 341 145 L 341 144 L 341 143 L 341 142 L 341 141 L 342 140 L 342 139 L 343 138 L 343 137 L 344 136 L 345 135 L 346 134 L 347 133 L 348 132 L 349 131 L 350 130 L 351 129 L 352 128 L 353 127 L 354 127 L 355 126 L 356 125 L 357 125 L 358 124 L 359 124 L 360 123 L 361 122 L 362 122 L 363 121 L 364 120 L 365 120 L 366 119 L 367 119 L 368 118 L 369 117 L 370 117 L 371 116 L 372 115 L 373 115 L 374 114 L 375 113 L 376 112 L 377 111 L 378 111 L 379 110 L 380 109 L 381 108 L 382 107 L 383 107 L 384 106 L 385 105 L 385 104 L 386 103 L 387 103 L 388 102 L 389 101 L 390 100 L 391 99 L 392 98 L 393 97 L 394 96 L 395 95 L 396 94 L 397 93 L 398 92 L 399 91 L 400 90 L 401 89 L 402 89 L 403 88 L 404 87 L 405 86 L 406 86 L 407 85 L 408 84 L 409 84 L 410 83 L 411 82 L 412 82 L 413 81 L 414 81 L 415 80 L 416 80 L 417 80 L 418 79 L 419 79 L 420 78 L 421 78 L 422 78 L 423 77 L 424 77 L 425 77 L 426 76 L 427 76 L 428 76 L 429 76 L 430 76 L 431 75 L 432 75 L 433 75 L 434 75 L 435 75 L 436 74 L 437 74 L 438 74 L 439 74 L 440 74 L 441 73 L 442 73 L 443 73 L 444 73 L 445 73 L 446 73 L 447 73 L 448 73 L 449 73 L 450 73 L 451 72 L 452 72 L 453 72 L 454 72 L 455 72 L 456 72 L 457 72 L 458 72 L 459 72 L 460 72 L 461 72 L 462 72 L 463 72 L 464 72 L 465 72 L 466 72 L 467 72 L 468 72 L 469 72 L 470 72 L 471 72 L 472 72 L 473 72 L 474 72 L 475 72 L 476 72 L 477 72 L 478 72 L 479 72 L 480 72 L 481 72 L 482 72 L 483 72 L 484 72 L 485 72 L 486 72 L 487 72 L 488 72 L 489 72 L 490 72 L 491 72 L 492 73 L 493 73 L 494 73 L 495 73 L 496 73 L 497 73 L 498 73 L 499 73 L 500 73 L 501 73 L 502 73 L 503 73 L 504 73 L 505 74 L 506 74 L 507 74 L 508 74 L 509 74 L 510 74 L 511 74 L 512 75 L 513 75 L 514 75 L 515 75 L 516 75 L 517 75 L 518 75 L 519 76 L 520 76 L 521 76 L 522 76 L 523 76 L 524 76 L 525 76 L 526 76 L 527 77 L 528 77 L 529 77 L 530 76 L 529 76 L 528 75 L 527 75 L 526 75 L 525 74 L 524 74 L 523 73 L 522 73 L 521 73 Z M 519 71 L 520 70 L 521 71 L 520 72 Z" fill="#fff" fill-rule="evenodd" stroke="none" /></svg>